<?xml version="1.0" encoding="utf-8"?>
<!-- Generator: Adobe Illustrator 25.1.0, SVG Export Plug-In . SVG Version: 6.00 Build 0)  -->
<svg version="1.1" id="Camada_1" xmlns="http://www.w3.org/2000/svg" xmlns:xlink="http://www.w3.org/1999/xlink" x="0px" y="0px"
	 viewBox="0 0 683 108" style="enable-background:new 0 0 683 108;" xml:space="preserve">
<style type="text/css">
	.st0{fill:#E5E5E6;}
	.st1{fill:#423768;}
	.st2{fill:url(#SVGID_1_);}
	.st3{fill:#FFFFFF;}
	.st4{fill:#17B0CE;}
	.st5{font-family:'Elianto-Regular';}
	.st6{font-size:43.7764px;}
	.st7{letter-spacing:8;}
	.st8{font-family:'Montserrat-Medium';}
	.st9{font-size:17.9282px;}
</style>
<g>
	<path class="st0" d="M173.51,96.03c-3.29,3.29-8.62,3.29-11.91,0l-36.07-36.07c-3.29-3.29-3.29-8.62,0-11.91l36.07-36.07
		c3.29-3.29,8.63-3.29,11.91,0l36.07,36.07c3.29,3.29,3.29,8.63,0,11.91L173.51,96.03z"/>
	<g>
		<g>
			<rect x="130.43" y="65.87" class="st1" width="20.91" height="4.77"/>
			<rect x="151.35" y="70.64" class="st1" width="4.77" height="20.91"/>
			<rect x="130.43" y="52.05" class="st1" width="20.91" height="4.77"/>
			<rect x="165.16" y="17.32" class="st1" width="4.77" height="20.91"/>
			<rect x="178.98" y="17.32" class="st1" width="4.77" height="20.91"/>
			<rect x="183.76" y="38.23" class="st1" width="20.91" height="4.77"/>
			<path class="st1" d="M178.98,43v9.05h-9.05V43h-4.77v9.05h-9.05v4.77h9.05v9.05h-9.05v4.77h9.05v20.91h4.77V70.64h9.05v20.91
				h4.77V70.64h20.91v-4.77h-20.91v-9.05h20.91v-4.77h-20.91V43H178.98z M178.98,65.87h-9.05v-9.05h9.05V65.87z"/>
			<rect x="151.35" y="56.82" class="st1" width="4.77" height="9.05"/>
			<rect x="169.94" y="38.23" class="st1" width="9.05" height="4.77"/>
			<polygon class="st1" points="156.12,43 165.16,43 165.16,38.23 156.12,38.23 156.12,17.32 151.35,17.32 151.35,38.23 
				130.43,38.23 130.43,43 151.35,43 151.35,52.05 156.12,52.05 			"/>
		</g>
		<radialGradient id="SVGID_1_" cx="150.675" cy="35.5742" r="68.4043" gradientUnits="userSpaceOnUse">
			<stop  offset="0" style="stop-color:#18DAB6"/>
			<stop  offset="0.324" style="stop-color:#18C6C1"/>
			<stop  offset="0.7085" style="stop-color:#17B6CB"/>
			<stop  offset="1" style="stop-color:#17B0CE"/>
		</radialGradient>
		<path class="st2" d="M194.54,74.72c0,3.7-3,6.7-6.7,6.7h-40.58c-3.7,0-6.7-3-6.7-6.7V34.15c0-3.7,3-6.7,6.7-6.7h40.58
			c3.7,0,6.7,3,6.7,6.7V74.72z"/>
		<path class="st3" d="M179.9,63.72c0,1.69-1.37,3.06-3.07,3.06h-18.56c-1.69,0-3.07-1.37-3.07-3.06V45.15
			c0-1.69,1.37-3.07,3.07-3.07h18.56c1.69,0,3.07,1.37,3.07,3.07V63.72z"/>
		<path class="st1" d="M172.59,17.32c0,2.79-2.26,5.04-5.04,5.04c-2.78,0-5.04-2.26-5.04-5.04c0-2.78,2.26-5.04,5.04-5.04
			C170.33,12.28,172.59,14.53,172.59,17.32z"/>
		<path class="st1" d="M158.77,91.55c0,2.78-2.26,5.04-5.04,5.04c-2.78,0-5.04-2.26-5.04-5.04c0-2.79,2.26-5.04,5.04-5.04
			C156.52,86.51,158.77,88.77,158.77,91.55z"/>
		<path class="st1" d="M186.41,91.55c0,2.78-2.26,5.04-5.04,5.04c-2.78,0-5.04-2.26-5.04-5.04c0-2.79,2.26-5.04,5.04-5.04
			C184.15,86.51,186.41,88.77,186.41,91.55z"/>
		<path class="st1" d="M204.67,59.48c-2.78,0-5.04-2.26-5.04-5.04c0-2.78,2.26-5.04,5.04-5.04c2.78,0,5.04,2.26,5.04,5.04
			C209.71,57.22,207.45,59.48,204.67,59.48z"/>
		<path class="st1" d="M130.43,45.66c-2.78,0-5.04-2.26-5.04-5.04c0-2.78,2.26-5.04,5.04-5.04c2.78,0,5.04,2.26,5.04,5.04
			C135.47,43.4,133.22,45.66,130.43,45.66z"/>
		<path class="st1" d="M130.43,73.29c-2.78,0-5.04-2.26-5.04-5.04c0-2.79,2.26-5.04,5.04-5.04c2.78,0,5.04,2.26,5.04,5.04
			C135.47,71.04,133.22,73.29,130.43,73.29z"/>
	</g>
	<g>
		<g>
			<text transform="matrix(1 0 0 1 239.9507 57.6838)" class="st4 st5 st6 st7">M.MARINHO</text>
		</g>
		<text transform="matrix(1 0 0 1 298.2789 83.595)" class="st1 st8 st9 st7">TECNOLOGIA</text>
	</g>
</g>
</svg>
