<?xml version="1.0" encoding="UTF-8" standalone="no"?>
<!-- Created with Inkscape (http://www.inkscape.org/) -->

<svg
   version="1.1"
   id="svg14839"
   width="512"
   height="512"
   viewBox="0 0 512 512"
   sodipodi:docname="promox7.png"
   xmlns:inkscape="http://www.inkscape.org/namespaces/inkscape"
   xmlns:sodipodi="http://sodipodi.sourceforge.net/DTD/sodipodi-0.dtd"
   xmlns="http://www.w3.org/2000/svg"
   xmlns:svg="http://www.w3.org/2000/svg">
  <defs
     id="defs14843" />
  <sodipodi:namedview
     id="namedview14841"
     pagecolor="#ffffff"
     bordercolor="#000000"
     borderopacity="0.25"
     inkscape:showpageshadow="2"
     inkscape:pageopacity="0.0"
     inkscape:pagecheckerboard="0"
     inkscape:deskcolor="#d1d1d1"
     showgrid="false" />
  <g
     inkscape:groupmode="layer"
     inkscape:label="Image"
     id="g14845">
    <path
       style="fill:#000000"
       d="m 7.2531331,461.21 c 0,-28.95281 0.22235,-34.09495 1.5567,-36 0.85619,-1.22238 2.0138499,-2.22251 2.5725799,-2.22251 0.55873,0 0.0832,1.18569 -1.0567,2.63486 -1.9697899,2.50418 -2.0725799,3.86056 -2.0725799,27.34912 0,28.63082 0.71993,40.01602 2.5303699,40.01602 1.99379,0 8.12241,-7.4179 9.4486,-11.43629 1.55223,-4.70329 2.29738,-4.14844 0.95549,0.71146 -1.60636,5.81776 -8.60027,12.72483 -12.8847999,12.72483 -0.71217,0 -1.04966,-10.86048 -1.04966,-33.77749 z m 69.2306499,9.52749 0.23065,-24.25 0.28778,23.25 c 0.3218,25.99827 0.31215,25.9701 6.84247,19.98551 2.63834,-2.41786 4.04246,-4.9465 5.41407,-9.75 1.01854,-3.56703 1.88144,-5.58551 1.91756,-4.48551 0.11804,3.59514 -2.0694,9.9335 -4.57308,13.25105 -2.33205,3.09013 -7.03338,6.24895 -9.30044,6.24895 -0.71037,0 -0.97511,-7.83866 -0.81901,-24.25 z m 46.543517,22.74718 c -2.45134,-1.38108 -8.55065,-9.35857 -11.65745,-15.24718 -2.10206,-3.98423 -0.41973,-2.3973 2.83416,2.67345 4.62099,7.20119 11.34608,13.07655 14.96776,13.07655 1.62983,0 3.22992,-0.43137 3.55577,-0.95859 0.32584,-0.52723 -1.04457,-4.23973 -3.04537,-8.25 -2.00079,-4.01028 -3.182,-6.84141 -2.62491,-6.29141 1.81752,1.79438 8.4478,14.58141 7.8636,15.1656 -1.39194,1.39194 -9.32333,1.27963 -11.89356,-0.16842 z m 30.43248,-0.16585 c -3.1927,-1.57352 -8.20747,-8.55201 -8.20587,-11.41919 4.3e-4,-0.77668 0.92311,0.45113 2.05039,2.72846 2.97745,6.0151 4.91644,7.33021 12.58041,8.53265 7.85746,1.2328 30.51724,0.55606 34.57758,-1.03266 1.49003,-0.58301 3.96504,-2.96179 5.5,-5.28616 l 2.79084,-4.22614 -0.0312,-24.18295 -0.0312,-24.18295 -2.7594,-3.61777 c -4.4914,-5.88853 -5.38031,-6.10479 -25.17811,-6.12565 -16.32283,-0.0172 -18.32282,0.17068 -21.46462,2.01641 -6.63705,3.89913 -7.26331,6.21094 -8.07964,29.8254 l -0.73084,21.13922 0.14448,-21 c 0.1395,-20.27717 0.22819,-21.14659 2.57667,-25.25893 4.20515,-7.36353 5.24904,-7.69929 25.05386,-8.05833 21.04615,-0.38155 24.00498,0.31025 28.45679,6.6534 l 3.04321,4.33614 v 24.82772 24.82772 l -3.04127,4.33614 c -4.24494,6.05231 -6.89769,6.71719 -26.95873,6.75693 -13.71472,0.0272 -17.63644,-0.28 -20.29335,-1.58946 z m 63.04335,-0.38771 c -1.7875,-1.17701 -3.25,-2.3162 -3.25,-2.53152 0,-0.21532 4.43006,-6.35863 9.84459,-13.6518 5.41452,-7.29316 10.54525,-14.3853 11.40163,-15.7603 1.52776,-2.45299 1.34265,-2.78714 -9.84458,-17.77045 -6.27091,-8.39874 -11.40164,-15.4771 -11.40164,-15.72967 0,-1.08207 8.16342,-4.49988 10.74794,-4.49988 3.53962,0 7.10538,3.11575 15.73598,13.75 3.68255,4.5375 6.85996,8.25 7.06089,8.25 0.20091,0 3.03952,-3.51297 6.30797,-7.80661 3.26847,-4.29363 7.63583,-9.29321 9.70522,-11.11017 3.24619,-2.85019 4.29474,-3.23218 7.64037,-2.78344 4.02329,0.53964 8.80163,3.0694 8.80163,4.6598 0,0.5024 -4.95914,7.56867 -11.02032,15.7028 -6.06117,8.13414 -10.81734,15.31829 -10.56926,15.96478 0.24809,0.6465 5.22769,7.57099 11.06578,15.38776 5.8381,7.81677 10.45497,14.72368 10.25971,15.34869 -0.68744,2.20048 -7.11475,4.75025 -10.64201,4.22178 -4.1151,-0.61654 -7.43454,-3.62808 -15.2499,-13.83539 -3.26363,-4.2625 -6.1187,-7.75 -6.3446,-7.75 -0.22589,0 -3.72931,4.1625 -7.78537,9.25 -9.05363,11.35593 -9.36982,11.61824 -14.81492,12.29052 -3.43994,0.42471 -5.10773,0.0765 -7.64911,-1.5969 z m 72.94633,-17.69362 0.19633,-19.75 0.55367,18.16942 c 0.30452,9.99318 0.85263,18.46714 1.21802,18.83102 1.08325,1.07876 4.56473,-1.27867 7.42352,-5.02675 2.67638,-3.50892 3.4149,-7.58877 4.70168,-25.97369 0.30796,-4.40004 0.36512,-4.22006 0.47628,1.5 0.2442,12.56478 -1.24324,21.62607 -4.18261,25.47978 -2.53474,3.32322 -7.20925,6.52022 -9.53356,6.52022 -0.70407,0 -0.98502,-6.50238 -0.85333,-19.75 z m 67.70154,17.49193 c -1.86883,-1.24194 -4.41038,-4.26229 -5.64788,-6.71189 -2.06526,-4.08813 -2.23571,-5.68854 -2.07601,-19.49193 l 0.17398,-15.03811 0.58727,16.19174 c 0.51561,14.21607 0.83746,16.52686 2.6378,18.93821 2.81562,3.77122 7.00003,6.75194 8.32713,5.93175 0.76314,-0.47165 1.09983,-10.59351 1.09983,-33.06401 0,-32.33138 -0.004,-32.38682 -2.22251,-33.94099 -2.53818,-1.77781 -9.552,-2.0248 -14.94698,-0.52635 -4.30076,1.19454 -6.24686,4.16343 -12.89305,19.66914 -2.40449,5.60972 -4.51985,10.05144 -4.70081,9.87049 -0.65692,-0.65692 9.02242,-23.62961 11.03321,-26.18589 1.13628,-1.44455 3.55095,-3.24692 5.36594,-4.00527 4.51856,-1.88798 14.33775,-1.78608 17.1417,0.17788 l 2.22251,1.55671 v 34.44329 c 0,37.86944 0.2743,36.42269 -6.10213,32.18523 z m 24.30877,0.5894 c -1.89842,-0.93563 -4.43977,-3.57324 -6,-6.22723 l -2.70665,-4.6041 v -23.5 c 0,-25.84888 0.1206,-26.45427 6.47424,-32.5 l 3.15279,-3 18.28358,-0.32731 c 21.34251,-0.38206 23.8424,0.23029 28.27311,6.92556 l 2.81628,4.25569 v 24.73689 24.73689 l -3.04127,4.33614 c -4.24495,6.05231 -6.8977,6.71719 -26.95873,6.75693 -13.71472,0.0272 -17.63644,-0.28 -20.29335,-1.58946 z m 43.44242,-2.83133 c 5.59953,-6.83913 5.82692,-7.82721 6.18253,-26.86487 0.3462,-18.53375 -0.76736,-29.3025 -3.45878,-33.44829 -0.82593,-1.27223 -3.61019,-3.2299 -6.18726,-4.35036 -4.22303,-1.8361 -6.21563,-1.99419 -20.18556,-1.60147 -13.19876,0.37104 -16.10173,0.7452 -19.55294,2.52015 -6.48333,3.33437 -6.77749,4.65154 -7.23797,32.40866 l -0.40915,24.66383 4.17197,4.52605 c 2.29458,2.48933 5.1521,4.73437 6.35003,4.98898 1.19793,0.25461 10.20894,0.39417 20.02447,0.31012 l 17.84641,-0.1528 z m -29.3689,-13.23627 c 2.6291,-0.20668 6.6791,-0.20418 9,0.006 2.32091,0.20972 0.16983,0.37882 -4.78017,0.37577 -4.95,-0.003 -6.84892,-0.17464 -4.21983,-0.38131 z m 22.0297,-17.76373 c 0.006,-3.3 0.1923,-4.52944 0.41486,-2.73209 0.22256,1.79735 0.21797,4.49735 -0.0102,6 -0.22818,1.50265 -0.41027,0.0321 -0.40466,-3.26791 z m -2.30987,-17.5 c -0.90129,-0.58246 -1.02463,-0.97549 -0.30902,-0.98469 0.65504,-0.008 1.46911,0.43469 1.80902,0.98469 0.7673,1.24153 0.42112,1.24153 -1.5,0 z m 29.25,50.94161 c -1.7875,-1.17591 -3.25,-2.31535 -3.25,-2.53208 0,-0.21674 5.13981,-7.26005 11.4218,-15.6518 11.23476,-15.00785 11.39598,-15.29867 9.84459,-17.75773 -0.86748,-1.375 -6.05781,-8.53495 -11.53408,-15.91101 l -9.95686,-13.41101 2.36227,-1.8014 c 3.06104,-2.33424 7.08932,-3.20526 10.92624,-2.36253 2.21493,0.48648 4.77813,2.7809 9.25,8.28002 3.40232,4.18388 7.34582,8.93363 8.76332,10.555 l 2.57729,2.94793 4.82786,-6.3985 c 7.50261,-9.94345 12.55896,-14.81564 16.0566,-15.4718 3.55813,-0.66751 10.18377,1.68736 11.04229,3.92463 0.32866,0.85646 -3.9431,7.47072 -10.52408,16.29515 -6.09251,8.16944 -10.87043,15.3938 -10.6176,16.05414 0.25283,0.66034 4.91729,7.18534 10.36546,14.5 5.44818,7.31466 10.16548,14.0446 10.4829,14.95542 0.98743,2.83341 -2.92469,5.34396 -8.32732,5.34396 -5.70603,0 -7.80885,-1.68225 -17.18752,-13.75 -3.31268,-4.2625 -6.15726,-7.75 -6.3213,-7.75 -0.16404,0 -3.48692,4.04232 -7.38419,8.98293 -3.89726,4.94061 -8.18966,9.70613 -9.5387,10.59004 -4.06114,2.66097 -9.56226,2.81369 -13.27897,0.36864 z m -120.65903,-5.79443 c -1.27826,-2.06827 -9.63722,-24.43425 -9.26941,-24.80207 0.21434,-0.21433 1.19198,1.75783 2.17253,4.3826 2.98037,7.97786 8.73999,20.27229 9.49704,20.27229 0.85137,0 5.47165,-9.96945 10.56377,-22.79408 2.02966,-5.11174 3.86503,-9.11934 4.07859,-8.90577 0.21357,0.21357 -2.4427,7.5459 -5.90285,16.29408 -5.14728,13.01373 -6.67761,15.96162 -8.41654,16.21296 -1.16895,0.16895 -2.39436,-0.12805 -2.72313,-0.66001 z m -156.84096,-9.87058 c 1.7875,-0.22182 4.7125,-0.22182 6.5,0 1.7875,0.22183 0.325,0.40333 -3.25,0.40333 -3.57499,0 -5.0375,-0.1815 -3.25,-0.40333 z m -125.615167,-1.2328 c 21.70673,-1.32122 23.98193,-3.71165 24.09676,-25.31709 0.0788,-14.8195 -0.86241,-19.04076 -5.16425,-23.16219 -2.85503,-2.7353 -3.08041,-2.77401 -20.72688,-3.56051 l -17.84046,-0.79515 17.5,0.15546 c 19.83139,0.17617 20.83042,0.49017 25.06084,7.87675 2.28097,3.98272 2.43781,5.19933 2.41842,18.75893 -0.0228,15.9243 -0.56353,17.89737 -6.43503,23.48024 l -3.13431,2.98025 -14.20496,0.17617 -14.20496,0.17618 z m 56.11517,-3.77227 c 2.0625,-0.21574 5.437497,-0.21574 7.499997,0 2.0625,0.21575 0.375,0.39226 -3.75,0.39226 -4.124997,0 -5.812497,-0.17651 -3.749997,-0.39226 z m 30.946947,-3.89192 c 4.62227,-4.93532 5.80522,-9.25236 5.78109,-21.09749 -0.0172,-8.42241 -0.43767,-11.69774 -1.92142,-14.9658 -2.85502,-6.28838 -5.94229,-7.4309 -22.49831,-8.32602 l -14.058307,-0.76008 14.680657,0.13489 c 16.01485,0.14715 17.46853,0.60564 22.25755,7.02001 1.86329,2.49568 2.06179,4.17452 2.06179,17.43821 0,13.74928 -0.14657,14.88216 -2.31954,17.9287 -1.27575,1.78862 -3.30075,3.75945 -4.5,4.37961 -1.88882,0.97676 -1.81974,0.74242 0.51649,-1.75203 z m -106.986057,-17.62961 -0.21089,-10.75 10.25,0.20929 10.25,0.20929 -9.71541,0.3265 -9.71542,0.32651 -0.32369,10.2142 -0.32369,10.21421 z m 291.412647,8.71134 c -0.96498,-2.51469 -0.68031,-3.16355 0.49853,-1.13634 0.58369,1.00375 0.8506,2.03566 0.59313,2.29313 -0.25747,0.25747 -0.74872,-0.26309 -1.09166,-1.15679 z M 95.503133,457.25245 c 2.6125,-0.206 6.887497,-0.206 9.499997,0 2.6125,0.206 0.475,0.37454 -4.75,0.37454 -5.224997,0 -7.362497,-0.16854 -4.749997,-0.37454 z m 229.749997,-0.26496 c 0,-0.55 0.47656,-1 1.05902,-1 0.58246,0 0.7809,0.45 0.44098,1 -0.33992,0.55 -0.81648,1 -1.05902,1 -0.24254,0 -0.44098,-0.45 -0.44098,-1 z m -5.38204,-13.57761 c -5.51664,-13.19518 -8.26038,-16.95112 -13.43224,-18.38756 -9.05991,-2.51631 -15.16926,-0.85966 -16.46648,4.46517 -0.38954,1.59898 -0.5105,1.47968 -0.60324,-0.59501 -0.21023,-4.70308 2.83206,-6.23551 11.30026,-5.69206 8.32088,0.534 11.58766,2.11642 14.63967,7.0914 2.11932,3.45463 10.21782,23.75525 9.68801,24.28507 -0.17736,0.17735 -2.48405,-4.8478 -5.12598,-11.16701 z m 21.41267,10.07761 c 0,-0.55 0.43621,-1.675 0.96937,-2.5 0.53316,-0.825 0.96937,-1.05 0.96937,-0.5 0,0.55 -0.43621,1.675 -0.96937,2.5 -0.53316,0.825 -0.96937,1.05 -0.96937,0.5 z M 96.539643,440.24741 c 3.18258,-0.19905 8.132577,-0.1972 10.999997,0.004 2.86742,0.20131 0.26349,0.36417 -5.78651,0.36191 -6.049997,-0.002 -8.396067,-0.16696 -5.213487,-0.36601 z m -20.28651,-12.93062 c 0,-1.27732 3.83833,-4.8243 4.50219,-4.16045 0.26945,0.26946 -0.6333,1.54515 -2.00614,2.83485 -1.37283,1.28971 -2.49605,1.88623 -2.49605,1.3256 z M 172.25313,348.3799 c -8.92274,-3.22845 -19.96895,-11.96246 -18.42516,-14.56838 1.00475,-1.69603 73.67508,-97.93112 90.78681,-120.22619 l 12.9726,-16.90217 3.08288,3.84072 c 4.43651,5.52712 33.99834,44.48167 70.46172,92.84961 l 31.57679,41.886 -4.47783,3.89617 c -2.4628,2.1429 -7.39335,5.3442 -10.95679,7.114 -5.99757,2.97874 -7.22354,3.21781 -16.49999,3.21763 -9.05462,-1.9e-4 -10.59756,-0.28281 -15.99922,-2.93058 -3.28801,-1.6117 -8.01301,-4.99175 -10.5,-7.51122 -3.42165,-3.46634 -28.41563,-35.19274 -45.58656,-57.86587 -0.83844,-1.1071 -5.40857,4.28804 -21.5,25.38114 -24.24819,31.78521 -27.64071,35.45807 -36.64267,39.6706 -5.6135,2.62686 -8.20039,3.21445 -15.27528,3.46959 -6.01768,0.21701 -9.83794,-0.17068 -13.0173,-1.32105 z m -51.06117,-41.97589 c -5.11155,-1.77888 -17.6428,-9.98532 -19.31898,-12.65157 -0.83205,-1.32353 -0.66773,-2.52058 0.69281,-5.04695 1.72018,-3.19417 74.41725,-99.91427 76.76234,-102.12874 4.24592,-4.00945 -5.51549,10.42761 -23.94248,35.41074 -33.16879,44.96993 -49.13252,67.39717 -49.13252,69.02568 0,2.35527 4.87441,6.11184 12.4027,9.5584 5.4223,2.48242 6.54245,2.63261 16.45781,2.20672 13.27003,-0.56998 17.84745,-2.66438 27.1857,-12.43882 9.66482,-10.11626 36.50504,-44.07831 61.13127,-77.35198 14.52436,-19.62455 18.82252,-26.04949 18.82252,-28.13613 0,-2.97657 -20.79506,-30.97294 -51.13704,-68.84575 -25.61253,-31.969495 -34.2987,-41.699415 -39.63164,-44.393835 -6.67143,-3.37068 -15.22148,-4.93788 -22.39624,-4.10516 -6.4133,0.74435 -18.14214,5.9527 -21.32492,9.46964 -2.91389,3.21981 -5.14505,-0.19621 39.52269,60.511235 23.63944,32.12811 33.53997,46.26052 32.87434,46.92614 -0.54172,0.54172 -1.57121,-0.7937 -45.58383,-59.12909 -18.3425,-24.31162 -33.59847,-44.850415 -33.90214,-45.641755 -0.729297,-1.90053 9.3524,-10.14522 16.57878,-13.55791 4.88448,-2.30672 6.73339,-2.5974 16.52103,-2.5974 10.43748,0 11.37436,0.17396 17.69467,3.28543 10.89047,5.36136 10.43658,4.82356 67.61567,80.115575 18.45475,24.30076 28.85224,38.80453 28.31684,39.5 -0.46532,0.60446 -14.26681,18.87401 -30.66997,40.59901 -51.65673,68.41628 -55.4356,72.84781 -66.25856,77.70243 -7.38394,3.31205 -22.19737,4.17922 -29.28085,1.71409 z m 248.56116,0.22711 c -11.90003,-3.90955 -16.51858,-8.05765 -33.57119,-30.15159 -13.90185,-18.0117 -67.25054,-88.49438 -68.26636,-90.19145 -0.4363,-0.72891 9.9501,-15.24317 26.47721,-37 33.18969,-43.69201 37.86325,-49.783215 49.10694,-64.002705 13.29421,-16.81273 22.75515,-22.2979 38.45988,-22.2979 11.17549,0 19.19927,3.38984 30.26648,12.78682 l 3.47297,2.94883 -20.56388,27.382185 c -11.31014,15.06019 -29.40129,39.04028 -40.20257,53.28907 l -19.63867,25.90689 3.2296,4.26848 c 50.13786,66.26603 75.72959,100.72406 75.72959,101.96628 0,2.54387 -6.99045,8.26846 -14.94305,12.2371 -6.74781,3.36742 -8.28901,3.73574 -16.5,3.94324 -5.41395,0.13682 -10.66586,-0.2997 -13.05695,-1.08525 z M 243.2385,155.23093 c -7.93526,-10.30889 -31.5073,-41.43658 -52.38231,-69.172635 l -37.95455,-50.42918 4.92574,-4.478 c 2.70916,-2.4629 7.76485,-5.81213 11.23486,-7.44273 5.4725,-2.57161 7.46154,-2.9658 15,-2.97275 9.5401,-0.009 14.56954,1.48114 22.01392,6.52144 4.44866,3.01204 13.69397,14.19528 37.17697,44.96981 7.42501,9.73048 13.95,17.56552 14.5,17.4112 0.55001,-0.15432 9.21765,-11.05134 19.26143,-24.21559 24.21938,-31.74401 28.48762,-36.42071 37.23283,-40.79576 3.85129,-1.92672 9.39192,-3.79348 12.35982,-4.16429 10.30721,-1.2878 22.47015,2.88148 30.99639,10.62511 l 4.85047,4.40526 -43.25482,57.49733 c -37.95008,50.445895 -58.68798,77.782145 -60.87246,80.240785 -0.3633,0.40889 -7.15303,-7.69111 -15.08829,-18 z"
       id="path14990" />
    <path
       style="opacity:0.37;fill:#ffffff;stroke-width:0.873435"
       d="m 174.64848,348.61284 c -4.60287,-1.19734 -13.14349,-6.21501 -16.88639,-9.92086 -1.98048,-1.96088 -3.59756,-3.79878 -3.59353,-4.08422 0.008,-0.53181 43.94104,-58.91595 82.0283,-109.00909 l 21.33194,-28.0562 4.91557,6.25929 c 6.77361,8.62522 35.09207,45.93964 70.18588,92.48191 l 29.44989,39.05715 -5.00549,3.92864 c -2.75303,2.16076 -7.57716,5.21471 -10.72031,6.78658 -5.46944,2.73522 -6.1461,2.85732 -15.75932,2.84358 -10.87183,-0.0156 -12.74481,-0.59668 -21.70421,-6.73437 -3.69096,-2.52852 -18.36913,-20.36534 -40.24833,-48.90956 -5.43124,-7.08574 -10.19131,-12.88316 -10.57793,-12.88316 -1.04256,0 -6.88465,7.10671 -22.2583,27.07647 -24.14492,31.36331 -27.97455,35.32804 -38.0103,39.35117 -5.15536,2.06668 -18.23381,3.09085 -23.14747,1.81267 z"
       id="path14992" />
    <path
       style="opacity:0.37;fill:#ffffff;stroke-width:0.873435"
       d="m 329.72159,348.47052 c -15.26598,-0.70919 -18.35357,-2.7626 -35.41497,-23.55282 -4.92787,-6.00487 -14.59901,-18.15384 -21.49142,-26.99774 -6.89242,-8.84389 -13.23965,-16.50828 -14.10495,-17.03197 -1.90045,-1.15019 -0.99448,-2.17024 -22.81484,25.68758 -24.36794,31.11028 -28.01776,34.98139 -36.75184,38.97998 -4.08271,1.86913 -6.73124,2.37282 -14.38423,2.73556 -9.27775,0.43974 -9.44514,0.4126 -15.33478,-2.48686 -3.27505,-1.61231 -7.92943,-4.7473 -10.34307,-6.96664 l -4.38843,-4.03517 4.68232,-6.47089 c 4.53745,-6.27067 91.58863,-121.58546 95.9814,-127.14446 l 2.18091,-2.7599 4.90857,6.25364 c 6.97937,8.89191 44.3504,58.13461 73.6586,97.05776 20.53069,27.26608 24.78107,33.38407 23.92177,34.43296 -1.48185,1.80876 -12.86156,9.15063 -16.41094,10.58787 -1.6369,0.66281 -3.17269,1.42396 -3.41288,1.69143 -0.2402,0.26746 -4.95675,0.27632 -10.48122,0.0197 z"
       id="path14994" />
    <path
       style="opacity:0.37;fill:#ffffff;stroke-width:0.873435"
       d="m 175.50625,347.62384 c -5.60189,-1.22003 -19.59816,-10.62855 -19.59816,-13.1742 0,-0.44045 7.19194,-10.33144 15.9821,-21.97999 8.79015,-11.64856 31.62742,-41.89422 50.74949,-67.21259 l 34.76739,-46.0334 1.95549,2.36167 c 9.58255,11.57299 96.85666,127.54037 98.77403,131.24815 l 1.51395,2.92767 -2.79323,2.33189 c -1.53628,1.28254 -6.01028,4.17691 -9.94223,6.43193 l -7.14899,4.10004 -8.73435,-0.529 c -13.37034,-0.80978 -16.1599,-2.02521 -24.92392,-10.85946 -4.10037,-4.13322 -16.08827,-18.29908 -26.63976,-31.47969 -10.55149,-13.1806 -19.84935,-24.36587 -20.66191,-24.85617 -2.13717,-1.28955 -3.05702,-0.29111 -22.84936,24.80145 -27.7885,35.23001 -33.93837,40.751 -46.35279,41.61278 -2.92011,0.20272 -6.68494,0.4862 -8.36631,0.62997 -1.68136,0.14377 -4.2605,-7e-4 -5.73144,-0.32105 z"
       id="path14996" />
    <path
       style="opacity:0.37;fill:#ffffff;stroke-width:0.873435"
       d="m 329.60658,347.55968 c -9.30981,-0.77057 -13.20926,-2.07251 -18.31197,-6.11393 -4.25712,-3.37169 -14.72094,-15.39508 -32.62757,-37.49048 -14.93481,-18.42842 -19.52366,-23.58274 -20.99555,-23.58274 -1.66626,0 -8.51946,7.80229 -24.33816,27.70868 -17.29135,21.75959 -27.93792,33.14332 -33.72647,36.06169 -2.72412,1.37338 -6.72823,2.24704 -13.25337,2.89172 l -9.34995,0.92378 -6.39891,-3.16581 c -6.08764,-3.0118 -13.82311,-8.73416 -13.82311,-10.22573 0,-1.08874 6.83246,-10.29186 55.31076,-74.5019 l 45.33661,-60.04885 7.09065,8.95292 c 11.1738,14.10847 91.69709,121.48244 93.13121,124.18604 1.22428,2.30799 1.1676,2.53555 -1.12185,4.50487 -2.8117,2.41851 -16.95796,10.89791 -17.8814,10.71827 -0.34556,-0.0673 -4.41397,-0.43556 -9.04092,-0.81853 z"
       id="path14998" />
    <path
       style="opacity:0.37;fill:#ffffff;stroke-width:0.873435"
       d="m 170.31976,344.20069 c -7.66543,-4.26675 -13.1382,-8.92861 -12.48377,-10.63401 0.26824,-0.69904 8.46157,-11.87281 18.20739,-24.83062 64.9558,-86.3636 81.4477,-107.92469 82.05202,-107.27261 4.46122,4.81384 97.64507,129.08189 98.96366,131.9759 1.19479,2.62229 -0.0801,3.89175 -9.79462,9.75301 -8.11087,4.89368 -9.90303,5.18863 -21.41627,3.52461 -12.10626,-1.74974 -14.52553,-3.92218 -44.07736,-39.58047 -23.30619,-28.12208 -22.10441,-26.78096 -23.99012,-26.77184 -2.0881,0.0101 -5.70389,3.93823 -20.91078,22.71717 -25.40828,31.37659 -33.84721,40.07377 -40.62333,41.86651 -2.8671,0.75854 -16.61398,2.69677 -18.91643,2.66711 -0.49299,-0.006 -3.64767,-1.54299 -7.01039,-3.41476 z"
       id="path15000" />
    <path
       style="opacity:0.37;fill:#ffffff;stroke-width:0.873435"
       d="m 171.39109,344.31896 c -6.63971,-3.65916 -12.8627,-8.61377 -12.8627,-10.24099 0,-1.18912 29.29905,-40.70769 66.69109,-89.95298 23.78812,-31.32893 31.8199,-41.48815 32.80014,-41.48815 0.41825,0 13.30875,16.60618 28.64554,36.90262 23.28303,30.81233 35.65486,47.38873 68.13778,91.29443 1.16342,1.57255 1.99001,3.53778 1.83686,4.36717 -0.40531,2.19501 -13.33382,10.43461 -17.90104,11.40871 -5.54644,1.18294 -16.28335,-0.29145 -21.89912,-3.00718 -5.68684,-2.7501 -12.82918,-10.37062 -37.97806,-40.52076 -14.49968,-17.38316 -19.07674,-22.33049 -20.84975,-22.53639 -2.63083,-0.30551 -5.05188,2.27688 -25.22274,26.90356 -15.67104,19.13285 -24.60817,29.06895 -29.93401,33.27999 -4.36763,3.45338 -7.88909,4.50175 -19.67263,5.85667 -6.21077,0.71413 -6.47451,0.66343 -11.79136,-2.2667 z"
       id="path15002" />
    <path
       style="opacity:0.37;fill:#ffffff;stroke-width:0.873435"
       d="m 171.35457,343.95159 c -2.79358,-1.51549 -6.81974,-4.28749 -8.94703,-6.16001 l -3.8678,-3.40457 2.78561,-4.07958 c 8.30225,-12.15879 75.02178,-100.87038 87.81717,-116.76343 4.206,-5.22423 8.07504,-9.63058 8.59785,-9.79188 1.12186,-0.34611 20.75272,25.04441 59.91492,77.49384 35.39809,47.40822 38.26934,51.41501 38.26934,53.40435 0,2.00296 -5.66726,6.2493 -12.96363,9.71332 -5.05245,2.3987 -6.08907,2.58554 -11.79137,2.12532 -11.88897,-0.95954 -14.86403,-2.41532 -24.19825,-11.84093 -4.58619,-4.63109 -16.97225,-18.63936 -27.52457,-31.12947 -13.45445,-15.92519 -19.79525,-22.79603 -21.22536,-22.99961 -2.80711,-0.39961 -3.73075,0.56316 -25.41672,26.49335 -21.38207,25.56679 -30.95306,35.29422 -36.30086,36.89413 -3.86137,1.15522 -14.44554,2.81598 -17.88648,2.80657 -1.20097,-0.003 -4.46924,-1.24592 -7.26282,-2.7614 z"
       id="path15004" />
    <path
       style="opacity:0.37;fill:#ffffff;stroke-width:0.873435"
       d="m 173.38087,344.51353 c -5.289,-2.47416 -13.97904,-8.82094 -13.97904,-10.20961 0,-1.38864 10.26256,-15.47373 42.79523,-58.73528 42.84222,-56.97107 53.98809,-71.18493 55.82001,-71.18493 0.83382,0 6.53677,7.13774 25.9544,32.48418 19.3327,25.23559 64.30105,85.71582 68.89457,92.65985 l 3.33846,5.04676 -2.44388,2.55084 c -1.34411,1.40297 -5.23928,4.03794 -8.65592,5.85549 -5.70886,3.03696 -6.73041,3.29166 -12.61146,3.14446 -3.51967,-0.0881 -8.62926,-0.807 -11.35465,-1.59756 -4.44303,-1.28882 -5.95349,-2.44435 -14.61247,-11.17879 -5.31148,-5.35776 -17.903,-19.37101 -27.98115,-31.14054 -12.64623,-14.76862 -18.95236,-21.48946 -20.35216,-21.69061 -2.77258,-0.39842 -4.69462,1.55467 -22.63517,23.00076 -8.43917,10.08817 -20.08483,23.11374 -25.87924,28.94572 l -10.53529,10.60358 -6.55076,1.35861 c -12.2466,2.53992 -13.95152,2.54765 -19.21148,0.0871 z"
       id="path15006" />
    <path
       style="opacity:0.37;fill:#ffffff;stroke-width:0.873435"
       d="m 171.33135,343.06569 c -2.80636,-1.52235 -6.67466,-4.16493 -8.59622,-5.87241 l -3.49377,-3.10452 6.5028,-9.17106 c 14.20455,-20.03305 78.65246,-105.19544 87.77742,-115.99033 3.82186,-4.52129 3.95176,-4.5914 5.66466,-3.05702 4.69121,4.20228 73.53114,95.22772 91.86427,121.46998 l 5.04853,7.22652 -3.20707,2.93756 c -1.76389,1.61565 -5.72599,4.21608 -8.80467,5.77875 -5.36053,2.72086 -5.92371,2.8226 -13.29689,2.4022 -5.00742,-0.28551 -9.05952,-1.04992 -11.58988,-2.18638 -4.1596,-1.8682 -17.92564,-15.31677 -30.23943,-29.54206 -26.45781,-30.56493 -29.25911,-33.58439 -31.15788,-33.58439 -2.42394,0 -7.64354,5.29371 -21.09957,21.39915 -12.46601,14.92049 -31.98527,36.32528 -35.7302,39.18168 -3.05583,2.33079 -13.95968,4.94095 -20.48426,4.90349 -2.86655,-0.0164 -5.55117,-0.83468 -9.15784,-2.79116 z"
       id="path15008" />
    <path
       style="opacity:0.37;fill:#ffffff;stroke-width:0.873435"
       d="m 371.43172,306.55632 c -7.10868,-1.79334 -13.35121,-5.86355 -20.37004,-13.28154 -5.77325,-6.10156 -43.99304,-55.50703 -75.01218,-96.9658 l -7.6752,-10.2583 1.57179,-2.4065 c 10.37387,-15.88287 74.46957,-99.502223 82.18162,-107.214269 9.73167,-9.731676 18.18889,-13.074907 31.64818,-12.510885 6.84074,0.286666 9.36434,0.798316 13.62159,2.761726 5.37893,2.48072 17.04727,10.803908 17.04727,12.160049 0,0.419458 -17.78531,24.343519 -39.52292,53.164579 -21.7376,28.82105 -39.48272,52.8679 -39.43359,53.43742 0.0491,0.56953 16.164,22.45673 35.81082,48.63823 41.38795,55.15389 42.54721,56.78675 41.76452,58.82642 -0.78964,2.05776 -10.39509,8.79087 -16.58154,11.62311 -4.15665,1.90298 -6.604,2.37477 -13.4307,2.58908 -4.59133,0.14414 -9.82015,-0.10936 -11.61962,-0.56332 z"
       id="path15010" />
    <path
       style="opacity:0.37;fill:#ffffff;stroke-width:0.873435"
       d="m 371.6454,306.49547 c 5.8e-4,-0.28425 -1.53436,-0.97684 -3.41097,-1.53909 -4.77844,-1.43166 -12.75363,-7.53469 -18.50651,-14.16216 -11.20538,-12.90887 -78.64665,-100.89999 -79.96144,-104.32627 -1.07751,-2.80795 72.55394,-99.578615 84.91686,-111.60258 2.36407,-2.299257 6.84484,-5.443622 9.95725,-6.987477 5.17909,-2.568992 6.4987,-2.833677 15.56245,-3.121507 7.88815,-0.250498 10.73577,-0.0018 13.99334,1.222092 3.87098,1.454366 12.90953,6.97525 17.58186,10.739277 l 2.13738,1.721869 -2.23164,3.360129 c -1.57964,2.378438 -60.09685,81.110197 -71.31032,95.944207 -0.36314,0.48038 -1.76222,2.32938 -3.10906,4.10887 l -2.44881,3.23544 3.21952,4.8504 c 1.77073,2.66772 3.80412,5.17756 4.51863,5.57742 0.71452,0.39987 1.16564,0.94999 1.0025,1.2225 -0.16314,0.27251 13.26346,18.67154 29.83688,40.88672 33.12165,44.39658 39.30456,52.99348 39.30456,54.6502 0,1.37914 -9.34391,8.11611 -15.74794,11.35429 -4.15076,2.09882 -6.12476,2.47929 -15.04169,2.89917 -5.64514,0.26582 -10.26343,0.25075 -10.26285,-0.0335 z"
       id="path15012" />
    <path
       style="opacity:0.37;fill:#ffffff;stroke-width:0.873435"
       d="m 366.16098,303.24523 c -8.65156,-4.70462 -12.5981,-8.43194 -24.04819,-22.71242 -21.87963,-27.28809 -71.78476,-92.90528 -71.78476,-94.38536 0,-2.683 44.57696,-62.24586 70.34986,-94.000092 12.81286,-15.78645 17.89118,-20.658337 25.07739,-24.057988 5.10935,-2.417128 6.12581,-2.580435 16.06533,-2.58108 10.01246,-6.51e-4 10.88162,0.141725 15.41128,2.524464 6.73007,3.540221 15.46599,9.587462 15.46599,10.705976 0,0.946984 -19.76816,27.8619 -57.7648,78.64842 l -20.71074,27.68208 3.54037,5.07172 c 1.94721,2.78943 3.78882,5.26822 4.09247,5.50842 0.30365,0.24019 3.09097,3.97412 6.19403,8.29763 3.10307,4.3235 15.70326,21.42098 28.00044,37.9944 28.02284,37.76757 33.86219,45.84608 35.0959,48.55379 0.88342,1.93891 0.67793,2.41946 -2.00712,4.69373 -1.64522,1.39352 -5.79788,4.15229 -9.22814,6.13059 -5.3816,3.1037 -7.29792,3.70855 -13.97495,4.41098 -11.75752,1.23689 -13.28183,1.04531 -19.77436,-2.48526 z"
       id="path15014" />
    <path
       style="opacity:0.37;fill:#ffffff;stroke-width:0.873435"
       d="m 367.82312,303.56819 c -6.66073,-3.59983 -11.20322,-6.95957 -14.996,-11.09142 -11.83631,-12.89443 -81.62565,-103.9045 -81.62565,-106.4454 0,-3.01919 50.39344,-70.18077 73.27847,-97.661487 10.08258,-12.107324 15.21127,-16.797487 21.75117,-19.891357 4.3855,-2.074674 5.84843,-2.294614 15.4026,-2.315655 9.81909,-0.02162 10.89191,0.145651 15.35154,2.393616 5.9413,2.994832 14.8392,9.146935 14.8392,10.259981 0,1.045505 -15.00508,21.601962 -50.16432,68.723462 -15.88214,21.28573 -27.44897,37.56079 -27.18454,38.24988 0.25314,0.65969 16.30686,22.70198 35.67493,48.98287 39.47155,53.55968 40.80049,55.42597 40.80049,57.29768 0,1.60562 -8.72964,7.68591 -15.45627,10.76547 -3.90516,1.78784 -6.61505,2.29127 -14.12202,2.62355 -8.77656,0.38848 -9.5248,0.28404 -13.5496,-1.89119 z"
       id="path15016" />
    <path
       style="opacity:0.37;fill:#ffffff;stroke-width:0.873435"
       d="m 366.06916,301.9938 c -9.38343,-5.08975 -14.26285,-10.46588 -43.80215,-48.26103 -19.96967,-25.55094 -50.19211,-66.34723 -50.19211,-67.75271 0,-4.14645 65.39815,-90.148475 81.2054,-106.789399 3.77967,-3.979014 8.21048,-7.576188 11.58781,-9.407637 5.41959,-2.93892 5.5691,-2.965272 16.82284,-2.965272 12.57954,0 12.44042,-0.04265 23.36438,7.163116 3.24263,2.138933 5.89568,4.303733 5.89568,4.810666 0,1.241672 -8.30605,12.819792 -35.27176,49.166646 -27.50224,37.07005 -40.65409,55.15616 -41.26378,56.74498 -0.48211,1.25636 4.94992,8.93584 39.97882,56.51973 31.21471,42.40263 35.68329,48.72873 35.68329,50.51631 0,2.01501 -10.93116,9.41274 -17.01941,11.518 -3.01343,1.04202 -7.10452,1.51611 -13.11409,1.51971 -8.17094,0.005 -9.06593,-0.17462 -13.87492,-2.78311 z"
       id="path15018" />
    <path
       style="opacity:0.37;fill:#ffffff;stroke-width:0.873435"
       d="m 373.78265,304.00749 c -5.99666,-0.68626 -13.18246,-5.17322 -20.24758,-12.64302 -7.62886,-8.06583 -28.44354,-34.29214 -51.18307,-64.49021 -27.1094,-36.00124 -29.66197,-39.68461 -29.08754,-41.97332 0.61816,-2.46295 17.61149,-26.20003 35.76289,-49.95528 35.45652,-46.402967 48.69173,-61.443088 57.69791,-65.56625 4.64026,-2.124384 5.62806,-2.245664 16.09214,-1.975769 l 11.14842,0.287546 6.09065,3.686487 c 3.34986,2.027567 7.07327,4.463205 8.27424,5.412527 2.17102,1.716105 2.17462,1.742648 0.62456,4.611143 -0.85747,1.586806 -14.74357,20.768676 -30.85801,42.626376 -37.92863,51.44657 -44.0085,59.89916 -44.0085,61.18311 0,1.3351 5.87302,9.58558 39.99483,56.18518 31.9532,43.63795 35.12055,48.16871 35.12055,50.23832 0,1.93889 -6.1122,6.37477 -13.28637,9.64247 -5.89008,2.68281 -13.90909,3.67208 -22.13512,2.73069 z"
       id="path15020" />
    <path
       style="opacity:0.37;fill:#ffffff;stroke-width:0.873435"
       d="m 368.40957,302.11621 c -3.02162,-1.16162 -6.80533,-3.85674 -11.27869,-8.03376 -7.6027,-7.09906 -28.3679,-32.7491 -54.23185,-66.98944 -22.93316,-30.36037 -29.07726,-39.12208 -29.07726,-41.46521 0,-5.14321 61.31595,-85.888214 79.66465,-104.907827 4.23858,-4.39356 9.70549,-9.070402 12.25183,-10.481216 4.51546,-2.501809 4.81372,-2.544244 16.60436,-2.362406 l 12.00631,0.185164 6.91146,4.433514 c 3.8013,2.438432 7.33853,4.948107 7.86051,5.577056 1.19142,1.435584 -1.31347,5.075267 -36.01026,52.323845 -32.73489,44.57694 -39.02187,53.39066 -39.02187,54.70481 0,1.55159 4.99654,8.69611 30.89453,44.17586 31.83387,43.61181 41.50171,57.10558 43.02572,60.0527 1.22507,2.36902 1.16649,2.59722 -1.24523,4.85009 -3.47839,3.24931 -10.80995,7.12031 -16.20763,8.5575 -6.61956,1.76253 -16.68081,1.48055 -22.14658,-0.62068 z"
       id="path15022" />
    <path
       style="opacity:0.37;fill:#ffffff;stroke-width:0.873435"
       d="m 373.15106,303.0935 c -6.22839,-1.1152 -10.83293,-4.26169 -19.47357,-13.30716 -17.98967,-18.83256 -78.82287,-98.44032 -79.21639,-103.66444 -0.17196,-2.28281 4.10307,-9.00021 17.1595,-26.96288 22.92401,-31.53822 52.36948,-68.43464 63.48809,-79.553252 3.51753,-3.517531 8.38274,-7.535352 10.81156,-8.928491 4.27732,-2.45341 4.7898,-2.533237 16.31371,-2.541176 l 11.89766,-0.0082 6.88118,4.458269 c 3.78466,2.452048 7.20942,4.76516 7.6106,5.140249 1.59975,1.495735 0.86482,2.57008 -40.03787,58.529391 -32.66979,44.69579 -34.49677,47.29471 -34.49677,49.07242 0,1.60918 5.39368,9.26034 42.27467,59.96839 31.17691,42.86545 32.6688,45.10446 31.41836,47.15217 -1.36825,2.24064 -8.54758,6.8225 -13.72615,8.76005 -5.51424,2.06314 -15.08745,2.92621 -20.90458,1.88466 z"
       id="path15024" />
    <path
       style="opacity:0.37;fill:#ffffff;stroke-width:0.873435"
       d="m 367.49376,300.98464 c -9.48111,-4.53089 -29.12668,-27.46564 -69.65391,-81.31582 -18.00139,-23.91917 -23.46083,-32.24856 -22.8174,-34.81217 2.22817,-8.87773 66.61801,-92.586309 82.58005,-107.356356 8.70271,-8.052814 10.75106,-8.828231 24.34269,-9.215089 l 11.60889,-0.330423 6.91742,4.541412 c 3.80458,2.497778 7.34185,5.052829 7.86061,5.677892 1.19377,1.438408 -2.12358,6.342923 -30.38694,44.925274 -34.54431,47.15648 -43.85641,60.32623 -43.85641,62.02442 0,1.9141 7.3511,12.45799 39.3731,56.47395 28.78218,39.56264 33.99541,47.18809 33.99541,49.72543 0,2.24954 -4.08721,5.30816 -11.78669,8.82045 -4.40011,2.00722 -6.70069,2.44005 -14.41167,2.71138 -8.36786,0.29445 -9.57982,0.12977 -13.76515,-1.87035 z"
       id="path15026" />
    <path
       style="opacity:0.37;fill:#ffffff;stroke-width:0.873435"
       d="m 369.23693,301.62741 c -7.4904,-2.65108 -24.23871,-20.82615 -50.97628,-55.31883 -17.67586,-22.80267 -35.09858,-46.39236 -39.60914,-53.62927 -3.46793,-5.56406 -3.88211,-6.71916 -3.12413,-8.7128 3.37911,-8.88774 50.9229,-71.65536 74.18021,-97.933195 4.67687,-5.28428 10.76141,-11.161577 13.52119,-13.06066 5.60289,-3.855507 9.36394,-4.642136 22.82935,-4.774782 l 7.86091,-0.07744 7.20583,4.889274 c 3.96321,2.689101 7.20584,5.430777 7.20584,6.092613 0,1.782229 -7.82901,12.941142 -41.32409,58.90036 -16.63011,22.81848 -30.92923,42.76554 -31.77583,44.32681 -1.46813,2.70746 -1.46844,2.96986 -0.007,5.67732 0.84294,1.56127 10.04693,14.63003 20.45329,29.04171 38.01219,52.64269 47.99199,66.72093 50.05818,70.61572 l 2.10875,3.97504 -2.12801,2.26515 c -2.86415,3.04875 -11.60025,7.22152 -17.3755,8.29936 -6.56704,1.2256 -14.70643,0.98003 -19.10392,-0.57638 z"
       id="path15028" />
    <path
       style="opacity:0.37;fill:#ffffff;stroke-width:0.873435"
       d="m 369.2878,301.64437 c -9.09102,-3.22019 -29.29373,-26.27204 -67.89687,-77.47217 -18.89896,-25.06608 -26.04065,-35.67591 -26.04065,-38.68649 0,-4.04655 24.87114,-38.74671 52.20745,-72.83971 23.60222,-29.435957 33.71399,-39.977625 41.03386,-42.7784 1.43998,-0.550975 7.64542,-1.227861 13.78986,-1.504191 l 11.17171,-0.502417 7.38877,5.018997 c 4.06383,2.760448 7.38878,5.560499 7.38878,6.222335 0,1.782229 -7.82901,12.941142 -41.32409,58.900356 -16.63011,22.81848 -30.92923,42.76554 -31.77583,44.32681 -1.46813,2.70746 -1.46844,2.96986 -0.007,5.67732 0.84294,1.56127 10.04693,14.63003 20.45329,29.04171 38.01219,52.64269 47.99199,66.72093 50.05818,70.61572 l 2.10875,3.97504 -2.12801,2.26515 c -2.86415,3.04875 -11.60025,7.22152 -17.3755,8.29936 -6.54338,1.22119 -14.70247,0.98163 -19.05305,-0.55942 z"
       id="path15030" />
    <path
       style="opacity:0.37;fill:#ffffff;stroke-width:0.873435"
       d="m 369.2878,301.70469 c -9.06878,-3.36142 -29.29938,-26.38278 -66.33441,-75.48511 -22.59865,-29.96208 -27.38475,-37.15466 -27.38475,-41.15399 0,-7.53872 71.32596,-99.477001 85.89373,-110.715951 6.2909,-4.853398 8.25285,-5.416595 20.84158,-5.982783 l 11.09421,-0.498971 5.57537,3.632503 c 3.06647,1.997877 6.45996,4.574094 7.54112,5.724927 1.69675,1.806107 1.82044,2.372614 0.90393,4.140061 -1.52612,2.943073 -10.37201,15.35806 -35.68749,50.086544 -31.78652,43.60563 -37.64233,51.96187 -37.64233,53.71565 0,1.81836 7.0388,11.94667 36.9548,53.17523 24.62774,33.94058 36.41371,51.06055 36.41371,52.89351 0,2.00603 -6.01659,6.37971 -12.17756,8.8523 -7.30585,2.93207 -20.26725,3.73796 -25.99191,1.61608 z"
       id="path15032" />
    <path
       style="opacity:0.37;fill:#ffffff;stroke-width:0.873435"
       d="M 250.9364,164.02562 C 238.00262,147.86639 155.28217,38.345588 154.52949,36.384128 c -0.69465,-1.810245 6.87542,-7.965498 14.43628,-11.738183 6.26321,-3.125195 6.83568,-3.244005 15.2851,-3.172278 17.11613,0.145297 22.38736,4.198841 47.03941,36.173021 17.83842,23.136779 25.3015,32.317083 26.27199,32.317083 0.95169,0 -0.98226,2.380201 21.01337,-25.86208 19.55815,-25.112565 27.62291,-34.202287 33.31033,-37.543743 12.03483,-7.070677 24.90928,-7.315774 37.05467,-0.705427 5.79347,3.153204 12.44924,8.986509 11.89664,10.42656 -0.40156,1.046448 -81.80428,109.298609 -95.5406,127.053199 -3.53082,4.5637 -6.74443,8.41311 -7.14136,8.55426 -0.39693,0.14114 -3.64544,-3.39627 -7.21892,-7.86092 z"
       id="path15034" />
    <path
       style="opacity:0.37;fill:#ffffff;stroke-width:0.873435"
       d="M 249.63247,161.36706 C 231.77409,138.97663 155.03465,37.099774 155.03465,35.781976 c 0,-1.529518 7.77651,-7.244157 14.41168,-10.59056 l 6.98747,-3.524086 8.76086,0.369126 c 15.44688,0.650831 21.39314,4.961774 40.5882,29.42583 23.64131,30.130777 29.83947,37.737633 31.16295,38.245496 1.76357,0.676746 1.66944,0.784483 22.7243,-26.009659 25.36014,-32.272991 29.64388,-36.549956 40.26936,-40.205659 12.3978,-4.26547 29.18732,0.10962 38.51243,10.035749 l 2.03885,2.170256 -2.03275,2.894839 c -3.1741,4.52023 -62.48667,83.532682 -79.9093,106.450122 -15.92077,20.94191 -20.04477,26.14977 -20.70748,26.14977 -0.20433,0 -3.89827,-4.42177 -8.20875,-9.82614 z"
       id="path15036" />
    <path
       style="opacity:0.37;fill:#ffffff;stroke-width:0.873435"
       d="M 249.63769,160.49362 C 234.67331,141.71913 161.81207,45.275562 157.25358,38.208395 c -1.95586,-3.03223 -1.29923,-3.937567 6.51542,-8.983244 11.36343,-7.337012 11.98712,-7.525638 21.82343,-6.600117 16.80013,1.580762 19.8517,4.116486 49.41557,41.062186 10.53882,13.170268 19.59787,24.470329 20.13121,25.111247 2.61357,3.140683 4.11091,1.608399 28.21161,-28.869892 19.28976,-24.394278 24.93029,-30.331008 32.22875,-33.921207 5.50434,-2.707648 6.33364,-2.861349 15.43838,-2.861349 8.97355,0 10.0112,0.18461 15.40666,2.741019 5.54341,2.626511 12.99376,8.385606 12.99376,10.044136 0,0.434784 -18.98038,26.035274 -42.17863,56.889978 -46.02086,61.209808 -58.4219,77.428128 -59.23655,77.470718 -0.29342,0.0154 -4.05789,-4.39387 -8.3655,-9.79825 z"
       id="path15038" />
    <path
       style="opacity:0.37;fill:#ffffff;stroke-width:0.873435"
       d="M 249.63625,159.62019 C 232.36172,137.95135 157.96034,39.314264 156.96815,36.766149 c -1.12251,-2.882813 14.94102,-13.214895 21.5298,-13.847993 5.68993,-0.546731 16.11387,1.19599 20.4815,3.424189 8.05491,4.109308 12.92477,9.350192 40.24772,43.31407 10.43637,12.972959 16.90662,20.307356 17.91474,20.307356 2.26111,0 7.88054,-6.28277 27.73317,-31.006931 19.80301,-24.662362 24.18713,-29.140903 32.19479,-32.888139 5.36829,-2.512123 6.10272,-2.626616 15.04345,-2.345155 8.15375,0.256686 10.05352,0.617018 14.33287,2.718539 2.71327,1.332447 6.63346,3.93146 8.71153,5.775584 l 3.7783,3.352954 -2.40644,3.636389 c -2.87174,4.339489 -81.04439,108.463368 -91.03004,121.249588 -3.82958,4.90362 -7.20294,8.93233 -7.49635,8.9527 -0.29342,0.0204 -4.05854,-4.38474 -8.36694,-9.78911 z"
       id="path15040" />
    <path
       style="opacity:0.37;fill:#ffffff;stroke-width:0.873435"
       d="M 249.602,158.78344 C 227.19006,130.59264 157.65496,37.941827 157.65496,36.270237 c 0,-1.806646 5.78929,-6.260323 12.56379,-9.665274 5.0582,-2.54231 6.93615,-3.022227 11.82622,-3.022227 3.19725,0 8.15578,0.6025 11.01894,1.338888 10.10028,2.597726 15.55362,7.704 38.68054,36.218803 18.65856,23.005438 23.78606,28.823344 25.4029,28.823344 2.25166,0 9.71753,-8.195873 29.21189,-32.06822 18.68012,-22.875245 23.46845,-27.757183 30.69072,-31.290714 4.40613,-2.155716 5.33332,-2.279502 15.01626,-2.004766 8.93813,0.253604 10.89341,0.585236 14.60068,2.476404 5.84656,2.982459 11.45201,8.055464 10.79442,9.769096 -0.54195,1.412323 -82.57234,110.979539 -92.73586,123.866409 -3.22039,4.08331 -6.17636,7.53897 -6.56883,7.67925 -0.39247,0.14028 -4.24205,-4.18322 -8.55463,-9.60779 z"
       id="path15042" />
    <path
       style="opacity:0.37;fill:#ffffff;stroke-width:0.873435"
       d="M 249.14252,157.4366 C 223.63562,125.51129 158.52839,38.385847 158.52839,36.178232 c 0,-2.661169 11.98987,-10.20062 18.56531,-11.674206 5.09239,-1.141229 14.92268,0.102697 20.57683,2.603795 7.60709,3.364978 14.16576,10.125812 36.8279,37.963062 14.07321,17.286955 20.93287,24.892888 22.45048,24.892888 2.80577,0 8.3325,-5.976134 32.85835,-35.530146 15.87165,-19.125576 21.14897,-24.40392 27.4478,-27.453136 3.61507,-1.750025 5.26939,-1.961849 14.11748,-1.807643 8.41678,0.146689 10.73806,0.502248 14.48851,2.21926 5.82835,2.668305 11.18814,7.364068 10.66944,9.347585 -0.84377,3.226561 -96.88746,130.959769 -98.46978,130.959769 -0.39524,0 -4.40842,-4.61829 -8.91819,-10.26286 z"
       id="path15044" />
    <path
       style="opacity:0.37;fill:#ffffff;stroke-width:0.873435"
       d="M 252.86293,161.50612 C 240.54039,146.69908 184.45331,72.652808 167.95668,49.412712 c -5.0901,-7.170826 -9.06051,-13.543988 -8.82314,-14.162582 0.6395,-1.666488 9.5124,-7.329866 14.38378,-9.180845 6.97487,-2.65024 17.99981,-1.742524 25.60816,2.108394 5.60145,2.835142 13.5551,11.106956 31.69488,32.962748 19.62422,23.644319 24.40811,28.823344 26.62426,28.823344 2.20539,0 6.83484,-4.950323 28.18029,-30.133496 10.17954,-12.009727 20.65278,-23.85024 23.27387,-26.312253 7.73168,-7.26245 9.10532,-7.75278 21.69624,-7.744648 9.52212,0.0061 11.47626,0.263116 15.28511,2.009968 4.60472,2.111864 10.0445,6.755698 10.0445,8.574792 0,2.926605 -95.69173,130.467886 -97.8875,130.467886 -0.41081,0 -2.73921,-2.39395 -5.1742,-5.3199 z"
       id="path15046" />
    <path
       style="opacity:0.37;fill:#ffffff;stroke-width:0.873435"
       d="M 247.54663,154.40296 C 226.84213,128.38679 173.79203,57.796843 164.74108,44.219589 l -5.74845,-8.62321 3.04326,-2.555188 c 1.6738,-1.405354 5.55058,-3.794335 8.61508,-5.308847 4.93242,-2.437657 6.38579,-2.745233 12.66481,-2.680236 15.02406,0.155522 20.21952,4.12244 47.03641,35.913957 20.46104,24.25663 24.89659,28.997706 27.12897,28.997706 2.33073,0 5.79146,-3.652302 28.06844,-29.622206 29.68848,-34.610005 29.00054,-34.094063 45.48214,-34.11081 9.17411,-0.0093 11.02585,0.244133 14.84839,2.032363 2.40195,1.123658 5.66765,3.264294 7.25712,4.756971 2.37824,2.233431 2.73101,3.0109 1.99237,4.391066 -1.94741,3.638766 -18.33529,26.023877 -47.74491,65.217415 -36.42048,48.53675 -47.54815,62.78125 -49.30906,63.12037 -0.78123,0.15045 -4.98414,-4.37857 -10.52902,-11.34598 z"
       id="path15048" />
    <path
       style="opacity:0.37;fill:#ffffff;stroke-width:0.873435"
       d="M 247.89649,154.42097 C 230.72033,133.19547 178.1646,63.367322 165.92008,45.503068 l -6.8268,-9.960034 2.55622,-2.078948 c 1.40592,-1.143422 5.38422,-3.490552 8.84067,-5.215845 6.07326,-3.031478 6.54527,-3.124426 14.04557,-2.765833 14.33247,0.685244 20.49741,5.529591 46.48773,36.529587 17.56041,20.945205 24.1975,27.951776 26.47776,27.951776 2.35095,0 6.65913,-4.527254 29.09093,-30.570213 10.13755,-11.769532 20.38965,-23.224071 22.78245,-25.45453 7.33189,-6.834463 8.71099,-7.29927 21.65713,-7.29927 10.23945,0 11.74068,0.202453 15.28511,2.061321 4.42345,2.319872 8.73434,6.054858 8.73434,7.567489 0,1.824327 -12.0647,18.489849 -48.94413,67.608762 -38.05055,50.67871 -45.86334,60.58064 -48.14589,61.02022 -0.86702,0.16697 -4.57538,-3.69316 -10.06468,-10.47658 z"
       id="path15050" />
    <path
       style="opacity:0.37;fill:#ffffff;stroke-width:0.873435"
       d="m 254.05635,161.36706 c -6.70487,-7.04299 -33.08606,-41.26639 -65.4774,-84.941526 -25.76041,-34.734276 -29.57422,-40.393962 -28.27477,-41.959702 0.58894,-0.709635 4.65556,-3.095726 9.03693,-5.302424 7.95295,-4.005541 7.97842,-4.011509 15.39756,-3.607969 5.85256,0.318331 8.45053,0.918814 12.22809,2.826353 6.484,3.274198 17.36533,14.05866 33.92535,33.623349 7.51828,8.882402 16.27946,18.897869 19.46929,22.256594 5.46705,5.756513 5.94145,6.056921 8.27118,5.2376 1.61095,-0.566545 10.45062,-9.988442 25.38826,-27.060484 24.2154,-27.675469 28.655,-32.234881 33.30597,-34.204797 4.38616,-1.857755 24.55711,-1.683036 28.32634,0.24536 3.8127,1.950633 9.39804,6.393011 9.39804,7.474855 0,1.701441 -11.35721,17.450964 -44.60693,61.858286 -34.34497,45.870095 -50.93856,67.266595 -52.16716,67.266595 -0.37778,0 -2.27713,-1.67044 -4.22075,-3.71209 z"
       id="path15052" />
    <path
       style="opacity:0.37;fill:#ffffff;stroke-width:0.873435"
       d="M 254.05635,161.36706 C 247.6163,154.60224 220.2447,119.12189 188.52752,76.425534 166.9173,47.334741 160.16266,37.463731 160.45746,35.404832 c 0.18128,-1.266087 2.6422,-3.000346 8.55215,-6.026881 l 8.29763,-4.249283 7.43143,0.41549 c 10.60127,0.592715 14.66413,2.869266 26.69787,14.95966 5.32022,5.345272 14.8072,15.824899 21.08217,23.288062 6.27498,7.463163 14.15325,16.498935 17.50728,20.079493 5.74512,6.133155 6.23902,6.460082 8.52986,5.646176 1.54739,-0.549764 11.35588,-10.992269 26.97256,-28.716053 13.49749,-15.318668 26.24837,-29.075264 28.33527,-30.570214 3.7172,-2.662811 4.028,-2.724029 15.28224,-3.010141 6.61567,-0.168187 12.82259,0.107847 14.63497,0.650846 3.45954,1.036502 11.2703,6.614709 11.2703,8.048898 0,1.736077 -11.1694,17.233518 -44.60693,61.89167 -34.34497,45.870095 -50.93856,67.266595 -52.16716,67.266595 -0.37778,0 -2.27713,-1.67044 -4.22075,-3.71209 z"
       id="path15054" />
    <path
       style="opacity:0.37;fill:#ffffff;stroke-width:0.873435"
       d="M 254.05635,161.36706 C 247.39369,154.3684 221.44776,120.7202 188.55845,76.425534 168.67689,49.649448 160.27526,37.553797 160.27526,35.706823 c 0,-1.393358 6.69969,-5.721455 13.46252,-8.696985 6.08908,-2.679093 15.72929,-2.102431 22.90614,1.370209 6.19745,2.998736 19.52647,16.071589 34.29291,33.633815 15.52108,18.459758 24.48218,27.949909 26.39177,27.949909 2.18455,0 5.72214,-3.66827 28.20896,-29.251103 22.13909,-25.18722 28.50107,-31.569159 32.73499,-32.837672 1.82173,-0.545802 7.9926,-0.822373 14.58888,-0.653855 l 11.43173,0.292051 4.98368,3.311776 c 2.74102,1.821477 5.19628,3.86582 5.45614,4.542986 0.69525,1.811803 -6.90365,12.524771 -44.29623,62.449078 -34.46548,46.016198 -50.94102,67.262118 -52.15965,67.262118 -0.37778,0 -2.27713,-1.67044 -4.22075,-3.71209 z"
       id="path15056" />
    <path
       style="opacity:0.37;fill:#ffffff;stroke-width:0.873435"
       d="M 253.2503,160.49362 C 238.39741,144.03473 160.27526,39.268297 160.27526,35.808577 c 0,-1.290255 5.31207,-4.936179 11.35465,-7.793237 4.21144,-1.991253 6.9177,-2.681858 10.48122,-2.674679 6.29616,0.01268 13.28267,1.925559 17.78005,4.868101 4.944,3.234756 19.82385,18.518338 31.39011,32.241817 15.30931,18.164642 24.15978,27.513192 26.04731,27.513192 2.17169,0 5.67559,-3.62414 27.86704,-28.823344 21.27617,-24.159869 29.92032,-32.671337 34.01166,-33.489604 1.57945,-0.315892 7.41505,-0.574348 12.96801,-0.574348 11.02818,0 14.19791,0.933169 20.20493,5.948337 l 3.00637,2.509971 -2.00557,3.413399 c -7.36951,12.542608 -93.16149,126.130968 -95.26527,126.130968 -0.40006,0 -2.58952,-2.06349 -4.86547,-4.58553 z"
       id="path15058" />
    <path
       style="opacity:0.37;fill:#ffffff;stroke-width:0.873435"
       d="M 253.2503,160.49362 C 238.39741,144.03473 160.27526,39.268297 160.27526,35.808577 c 0,-1.290255 5.31207,-4.936179 11.35465,-7.793237 4.21144,-1.991253 6.9177,-2.681858 10.48122,-2.674679 6.30303,0.0127 13.28725,1.92718 17.78005,4.87379 4.96005,3.253055 18.57543,17.200471 30.85114,31.603503 16.01272,18.787645 24.78087,28.145817 26.37125,28.145817 1.95006,0 11.3027,-9.661551 30.86104,-31.880365 19.15139,-21.756509 27.23919,-29.633885 31.24884,-30.435815 1.57057,-0.314114 7.3989,-0.571116 12.95186,-0.571116 11.00723,0 14.20114,0.935864 20.15331,5.905243 2.92726,2.44392 2.94175,2.492022 1.55744,5.168981 -4.77982,9.24315 -93.57595,126.928451 -95.77029,126.928451 -0.40006,0 -2.58952,-2.06349 -4.86547,-4.58553 z"
       id="path15060" />
    <path
       style="opacity:0.37;fill:#ffffff;stroke-width:0.873435"
       d="m 117.91368,299.66258 c -2.88233,-1.43415 -6.60501,-3.75383 -8.27261,-5.15485 -2.69366,-2.26306 -2.92451,-2.77961 -2.06875,-4.62916 1.39502,-3.01501 13.1465,-19.5726 39.60178,-55.79808 29.72756,-40.70624 33.19016,-45.79956 33.19016,-48.82106 0,-3.07001 -5.18342,-10.62205 -38.36336,-55.89393 C 104.35387,77.998557 105.30598,79.511673 108.85853,76.695216 123.0192,65.468644 144.47382,65.29138 156.52056,76.30142 c 5.78376,5.286033 19.57462,21.709052 42.27743,50.34661 27.65961,34.89013 42.7067,55.51716 42.7067,58.5437 0,4.77922 -61.77242,85.71154 -79.8066,104.56014 -9.85649,10.30161 -13.42743,11.88614 -27.59026,12.24259 -10.66687,0.26846 -11.0907,0.20743 -16.19415,-2.33188 z"
       id="path15062" />
    <path
       style="opacity:0.37;fill:#ffffff;stroke-width:0.873435"
       d="m 117.91368,299.66258 c -2.88233,-1.43415 -6.60501,-3.75383 -8.27261,-5.15485 -2.69366,-2.26306 -2.92451,-2.77961 -2.06875,-4.62916 1.39936,-3.02439 13.19695,-19.64328 39.61051,-55.79808 28.53413,-39.05743 33.18143,-45.90912 33.18143,-48.92069 0,-2.95348 -5.52096,-10.98297 -38.36336,-55.7943 C 104.35387,77.998557 105.30598,79.511673 108.85853,76.695216 123.0192,65.468644 144.47382,65.29138 156.52056,76.30142 c 5.78376,5.286033 19.57462,21.709052 42.27743,50.34661 27.65961,34.89013 42.7067,55.51716 42.7067,58.5437 0,4.77922 -61.77242,85.71154 -79.8066,104.56014 -9.85649,10.30161 -13.42743,11.88614 -27.59026,12.24259 -10.66687,0.26846 -11.0907,0.20743 -16.19415,-2.33188 z"
       id="path15064" />
    <path
       style="opacity:0.37;fill:#ffffff;stroke-width:0.873435"
       d="m 117.91368,299.66258 c -2.88233,-1.43415 -6.60501,-3.75383 -8.27261,-5.15485 -2.69366,-2.26306 -2.92451,-2.77961 -2.06875,-4.62916 1.39651,-3.01824 13.16211,-19.59705 39.5986,-55.79808 28.06097,-38.42553 33.19334,-45.99881 33.19334,-48.97978 0,-2.87552 -5.59072,-11.00322 -38.63842,-56.17193 -35.96532,-49.156437 -35.36695,-48.27364 -34.41017,-50.766984 0.24548,-0.639701 2.29041,-2.243799 4.5443,-3.564663 15.8184,-9.270199 33.38629,-8.599794 44.66059,1.704287 5.78376,5.286033 19.57462,21.709052 42.27743,50.34661 27.65961,34.89013 42.7067,55.51716 42.7067,58.5437 0,5.26678 -67.77659,93.35383 -82.84067,107.66534 -7.83291,7.44161 -11.36314,8.74983 -24.5918,9.11318 -10.64929,0.2925 -11.04688,0.23572 -16.15854,-2.30767 z"
       id="path15066" />
    <path
       style="opacity:0.37;fill:#ffffff;stroke-width:0.873435"
       d="m 117.91368,299.66258 c -2.88233,-1.43415 -6.60501,-3.75383 -8.27261,-5.15485 -2.69366,-2.26306 -2.92451,-2.77961 -2.06875,-4.62916 1.38246,-2.98786 13.34619,-19.873 36.44065,-51.4309 28.46142,-38.89169 36.35129,-50.44574 36.35129,-53.2334 0,-3.1611 -3.5214,-8.27838 -39.40018,-57.25609 C 112.60587,89.246724 109.98211,85.550069 108.17597,81.762551 l -1.58839,-3.330891 2.16931,-1.790797 c 1.19312,-0.984939 5.11716,-3.176588 8.72007,-4.870331 13.12474,-6.169982 29.04088,-4.4952 38.55267,4.056719 5.74331,5.163725 18.19912,19.885774 39.74531,46.976659 28.92361,36.36679 45.72975,59.29494 45.72975,62.38782 0,5.26678 -67.77659,93.35383 -82.84067,107.66534 -7.83291,7.44161 -11.36314,8.74983 -24.5918,9.11318 -10.64929,0.2925 -11.04688,0.23572 -16.15854,-2.30767 z"
       id="path15068" />
    <path
       style="opacity:0.37;fill:#ffffff;stroke-width:0.873435"
       d="m 117.91368,299.66258 c -2.88233,-1.43415 -6.60501,-3.75383 -8.27261,-5.15485 -2.69366,-2.26306 -2.92451,-2.77961 -2.06875,-4.62916 1.38246,-2.98786 13.34619,-19.873 36.44065,-51.4309 28.46142,-38.89169 36.35129,-50.44574 36.35129,-53.2334 0,-3.16652 -3.77754,-8.65511 -39.40667,-57.25609 -27.9116,-38.073647 -30.95096,-42.35669 -32.78162,-46.195629 l -1.58839,-3.330891 2.16931,-1.790797 c 1.19312,-0.984939 5.11716,-3.176588 8.72007,-4.870331 13.12474,-6.169982 29.04088,-4.4952 38.55267,4.056719 5.74331,5.163725 18.19912,19.885774 39.74531,46.976659 29.07774,36.56059 45.72975,59.29382 45.72975,62.43 0,5.17192 -67.3761,92.82076 -82.3878,107.17741 -8.24626,7.88642 -11.66547,9.19145 -25.04467,9.55893 -10.64929,0.2925 -11.04688,0.23572 -16.15854,-2.30767 z"
       id="path15070" />
    <path
       style="opacity:0.37;fill:#ffffff;stroke-width:0.873435"
       d="m 217.26687,492.67761 c -1.56126,-0.9799 -2.83866,-2.0943 -2.83866,-2.47643 0,-0.38212 4.71655,-7.13953 10.48122,-15.01646 5.93407,-8.1084 10.48121,-15.16174 10.48121,-16.25803 0,-1.10257 -4.65666,-8.27559 -10.81448,-16.65839 l -10.81449,-14.72203 4.04537,-1.95399 c 7.657,-3.69847 9.63912,-2.66267 21.06712,11.00914 4.06878,4.86764 7.65169,8.85026 7.96204,8.85026 0.31034,0 2.92215,-3.0461 5.80402,-6.76912 7.06846,-9.13158 13.51634,-15.06674 16.36829,-15.06674 3.07396,0 8.21987,2.25036 8.83973,3.86571 0.31612,0.82378 -2.78411,5.87292 -8.20275,13.35932 -8.65894,11.96321 -12.40947,17.62062 -12.41571,18.72825 -0.002,0.31854 3.39587,5.23161 7.55037,10.91793 12.46625,17.0627 13.80792,19.28664 12.54985,20.80252 -1.45372,1.75162 -7.2736,3.2588 -9.97021,2.58199 -2.38467,-0.59851 -9.19181,-7.46461 -15.74804,-15.88442 -2.33789,-3.00243 -4.55097,-5.45896 -4.91794,-5.45896 -0.36698,0 -3.41942,3.43915 -6.7832,7.64255 -8.9236,11.151 -11.30096,13.21276 -15.90716,13.79546 -3.01436,0.38132 -4.54136,0.0892 -6.73658,-1.28856 z"
       id="path15072" />
    <path
       style="opacity:0.37;fill:#ffffff;stroke-width:0.873435"
       d="m 216.93978,491.8313 -2.04913,-1.65928 3.48088,-4.90678 c 11.12527,-15.6826 17.01032,-24.71795 17.01444,-26.12238 0.006,-1.89062 -5.30101,-10.2507 -13.87855,-21.8646 -3.41317,-4.62141 -6.20577,-8.72715 -6.20577,-9.12386 0,-1.17633 5.96377,-3.66515 8.78253,-3.66515 2.81598,0 6.64424,3.39744 17.22336,15.28511 l 5.44103,6.11404 4.55941,-5.24061 c 9.8938,-11.37198 15.26909,-16.15854 18.14601,-16.15854 2.93297,0 7.86152,2.17151 7.86152,3.46377 0,0.74422 -3.52855,6.05601 -15.32146,23.06459 -2.62215,3.78185 -4.76754,7.5283 -4.76754,8.32545 0,0.79715 2.8206,5.36731 6.268,10.1559 9.27525,12.88373 13.821,19.6363 13.821,20.53067 0,1.30933 -4.95056,3.46096 -7.96311,3.46096 -2.29696,0 -3.77819,-0.99548 -8.12265,-5.45897 -2.92236,-3.00243 -7.20301,-7.71898 -9.51254,-10.48121 -2.30953,-2.76224 -4.66781,-4.99958 -5.24061,-4.97186 -0.5728,0.0277 -4.20739,3.85879 -8.07687,8.5135 -3.86948,4.65471 -8.34937,9.34858 -9.95531,10.43083 -3.62853,2.44526 -8.69792,2.58117 -11.50464,0.30842 z"
       id="path15074" />
    <path
       style="opacity:0.37;fill:#ffffff;stroke-width:0.873435"
       d="m 266.2345,491.77862 c -1.35147,-0.82399 -5.79812,-5.19765 -9.88142,-9.71924 -8.01936,-8.88012 -8.67705,-9.49763 -10.13701,-9.51785 -0.53127,-0.007 -4.25421,3.77941 -8.27321,8.41504 -4.019,4.63562 -8.49739,9.15418 -9.95199,10.04123 -5.0381,3.07237 -13.82381,1.26297 -11.32842,-2.33307 12.10097,-17.4384 18.72819,-27.90159 18.72819,-29.5684 0,-2.13724 -5.19449,-10.60057 -14.08691,-22.95165 -2.82076,-3.91788 -5.12865,-7.5151 -5.12865,-7.99383 0,-1.12788 4.78478,-2.78816 8.03523,-2.78816 2.64609,0 7.89314,4.66828 18.00898,16.02251 l 4.54783,5.10457 4.07323,-4.66786 c 8.99665,-10.31002 15.94148,-16.45922 18.58884,-16.45922 3.22928,0 7.01288,1.42539 7.01288,2.64195 0,0.51608 -4.3235,7.33244 -9.60778,15.14747 -5.28428,7.81502 -9.60778,15.03613 -9.60778,16.04691 0,1.82547 2.02132,5.05019 13.43433,21.43254 3.27228,4.69707 5.74919,9.0624 5.50424,9.70073 -0.24495,0.63833 -2.02666,1.56197 -3.95935,2.05254 -2.88032,0.73111 -3.9571,0.62179 -5.97123,-0.60621 z"
       id="path15076" />
    <path
       style="opacity:0.37;fill:#ffffff;stroke-width:0.873435"
       d="m 266.39758,491.01255 c -1.44117,-0.87894 -6.10786,-5.3975 -10.37042,-10.04123 -4.28543,-4.66865 -8.4519,-8.44316 -9.31992,-8.44316 -0.86637,0 -5.02557,3.75829 -9.28186,8.38718 -4.24163,4.61295 -8.77342,8.93645 -10.07063,9.60778 -3.07148,1.58954 -9.33942,1.60682 -9.94549,0.0274 -0.25183,-0.65625 3.50597,-7.2173 8.35067,-14.5801 4.8447,-7.36281 9.03806,-14.30137 9.31857,-15.41903 0.76092,-3.03173 -0.9689,-6.46167 -9.9109,-19.65177 -4.46549,-6.58693 -8.11908,-12.33851 -8.11908,-12.78129 0,-1.02342 3.07272,-1.85494 6.91134,-1.8703 2.66333,-0.0107 4.04271,1.08136 12.94838,10.25093 l 9.96751,10.26286 8.01404,-8.5608 c 4.40773,-4.70844 9.19318,-9.32414 10.63435,-10.25711 4.09441,-2.65059 11.01559,-1.91597 9.82372,1.0427 -0.26143,0.64897 -4.44568,7.24981 -9.29834,14.66854 -5.53124,8.45614 -8.82301,14.34642 -8.82301,15.78784 0,1.45711 2.88951,6.54971 7.88911,13.90414 7.15429,10.52398 10.45302,15.8754 10.45302,16.9576 0,0.3917 -5.02017,2.3154 -6.02602,2.30914 -0.28861,-0.002 -1.70388,-0.7224 -3.14504,-1.60134 z"
       id="path15078" />
    <path
       style="opacity:0.37;fill:#ffffff;stroke-width:0.873435"
       d="m 257.70146,482.13594 c -5.35592,-5.28428 -10.27246,-9.60778 -10.92565,-9.60778 -0.65319,0 -5.41966,4.12698 -10.59214,9.17106 l -9.40453,9.17107 h -4.52204 c -3.94334,0 -4.4485,-0.19562 -3.94739,-1.52851 0.31606,-0.84069 4.28857,-7.45573 8.82779,-14.7001 5.68797,-9.07771 8.25314,-13.99067 8.25314,-15.8069 0,-2.57835 -3.74953,-9.15208 -13.35736,-23.41827 -2.26123,-3.3576 -4.11133,-6.55722 -4.11133,-7.11028 0,-1.48822 6.21251,-1.99513 8.73435,-0.71269 1.20097,0.61074 6.24653,5.24952 11.21235,10.3084 l 9.02878,9.19797 9.77519,-9.99518 c 9.73387,-9.95292 9.79263,-9.99518 13.89889,-9.99518 2.76285,0 4.12369,0.36803 4.12369,1.11522 0,0.61337 -3.74375,7.00036 -8.31946,14.19331 -4.57571,7.19296 -8.54877,13.96245 -8.82903,15.04333 -0.83758,3.23022 0.15637,5.31667 8.84186,18.56049 4.56817,6.96564 8.30596,13.11405 8.3062,13.66314 5.3e-4,1.22671 -2.02376,2.05868 -5.00901,2.05868 -1.68641,0 -4.67336,-2.39463 -11.9843,-9.60778 z"
       id="path15080" />
    <path
       style="opacity:0.37;fill:#ffffff;stroke-width:0.873435"
       d="m 267.91926,490.5133 c -0.94516,-0.52424 -5.78736,-4.78536 -10.76045,-9.46915 -4.97309,-4.6838 -9.69088,-8.51599 -10.48399,-8.51599 -0.7931,0 -5.77937,4.12698 -11.08061,9.17106 -8.51646,8.10336 -9.99856,9.17107 -12.73045,9.17107 -1.70051,0 -3.33307,-0.39031 -3.62789,-0.86735 -0.29483,-0.47704 3.21938,-7.04176 7.80936,-14.58826 5.90317,-9.70556 8.34541,-14.53099 8.34541,-16.48905 0,-2.64022 -6.51759,-14.42642 -13.95664,-25.23871 -3.36056,-4.8844 -2.99974,-6.57737 1.40185,-6.57737 2.94061,0 4.12617,0.89319 13.58188,10.23243 l 10.36003,10.23242 9.80991,-9.77668 c 9.82034,-9.78709 13.28948,-11.90436 16.2671,-9.92811 1.3888,0.92174 1.00592,1.68416 -9.36732,18.65256 -3.82276,6.25321 -6.26094,11.19063 -6.26094,12.67866 0,2.45861 2.62383,7.30599 11.65928,21.53988 2.71479,4.27671 4.93598,8.2596 4.93598,8.85088 0,1.48445 -3.81415,2.08005 -5.90251,0.92171 z"
       id="path15082" />
    <path
       style="opacity:0.37;fill:#ffffff;stroke-width:0.873435"
       d="m 220.63542,490.09498 c -1.3151,-0.8566 -0.27822,-2.9715 9.87519,-20.14227 3.09406,-5.23246 4.88003,-9.24158 4.88003,-10.95459 0,-2.68898 -4.65957,-11.57253 -12.10127,-23.07127 -4.03662,-6.23728 -4.36129,-7.59104 -2.00027,-8.3404 2.81991,-0.89501 5.09737,0.62847 15.41206,10.30968 l 10.06228,9.44431 9.19194,-8.7107 c 5.05557,-4.79089 10.42125,-9.30607 11.92374,-10.03375 2.87277,-1.39132 5.06922,-1.1298 5.06922,0.60358 0,0.56633 -3.35416,6.71475 -7.45368,13.66315 -7.90718,13.40213 -8.7543,15.38145 -7.95172,18.57921 0.2782,1.10842 4.03561,7.85867 8.34981,15.00058 4.3142,7.1419 7.64341,13.30984 7.39825,13.70653 -1.33062,2.15299 -5.10908,0.35488 -11.79099,-5.61116 -3.90073,-3.48282 -8.52151,-7.59504 -10.2684,-9.13826 -1.74689,-1.54323 -3.83138,-2.82063 -4.6322,-2.83867 -0.80082,-0.018 -4.73127,2.99247 -8.73435,6.69002 -11.19915,10.34442 -11.50164,10.58785 -13.82907,11.12899 -1.20097,0.27924 -2.73123,0.151 -3.40057,-0.28498 z"
       id="path15084" />
    <path
       style="opacity:0.37;fill:#ffffff;stroke-width:0.873435"
       d="m 268.03093,489.19675 c -1.50361,-0.91686 -6.57966,-5.04237 -11.28012,-9.1678 -4.70046,-4.12544 -9.18355,-7.50079 -9.96242,-7.50079 -0.77887,0 -5.88831,3.93045 -11.35432,8.73434 -7.59348,6.67366 -10.52255,8.73435 -12.41501,8.73435 -1.42962,0 -2.47681,-0.4725 -2.47681,-1.11757 0,-0.61467 3.34089,-7.0016 7.4242,-14.19319 4.40659,-7.76096 7.42419,-14.06376 7.42419,-15.50672 0,-2.91351 -2.35368,-7.69491 -9.97313,-20.25993 -3.14097,-5.17968 -5.49965,-9.75935 -5.24151,-10.17703 0.85807,-1.38838 4.46449,-0.78502 7.01758,1.17406 1.38586,1.06341 6.2264,5.38691 10.75676,9.60778 4.53036,4.22087 8.46435,7.6743 8.74221,7.6743 0.27786,0 4.99124,-4.13651 10.47418,-9.19225 9.61867,-8.86923 13.25143,-11.15599 14.97864,-9.42878 0.50571,0.50571 -1.50967,4.87535 -5.30004,11.49132 -9.13188,15.93937 -9.86047,17.54487 -9.34535,20.59314 0.2505,1.48231 3.82885,8.4513 7.9519,15.48664 4.12305,7.03534 7.49646,13.22581 7.49646,13.7566 0,1.43317 -1.83993,1.16809 -4.91741,-0.70847 z"
       id="path15086" />
    <path
       style="opacity:0.37;fill:#ffffff;stroke-width:0.873435"
       d="m 268.77549,489.30694 c -1.48804,-0.82152 -6.72367,-4.93282 -11.63473,-9.13623 -4.91106,-4.2034 -9.49733,-7.64255 -10.19172,-7.64255 -1.40746,0 -5.85013,3.35326 -13.70593,10.34504 -5.93383,5.28119 -9.65635,7.47333 -11.49348,6.76835 -1.43611,-0.55108 -0.62191,-2.35491 8.30683,-18.40345 2.97906,-5.35458 5.33418,-10.66805 5.33418,-12.03463 0,-2.77172 -2.85494,-8.70429 -9.95881,-20.69441 -5.22648,-8.82141 -5.77156,-10.52795 -3.36106,-10.52281 2.44167,0.005 6.17762,2.74102 15.36363,11.25063 4.72698,4.37892 8.91976,7.96167 9.31729,7.96167 0.39752,0 4.3909,-3.39168 8.87417,-7.53707 9.8688,-9.12502 14.40739,-12.32265 15.68165,-11.04839 1.04442,1.04442 -0.23108,3.77838 -8.26333,17.71203 -7.2877,12.64206 -7.24823,13.65751 1.08655,27.94991 8.27599,14.1916 8.95175,15.53582 8.08074,16.07413 -0.40175,0.2483 -1.94794,-0.2207 -3.43598,-1.04222 z"
       id="path15088" />
    <path
       style="opacity:0.37;fill:#ffffff;stroke-width:0.873435"
       d="m 446.21161,493.10594 c -1.50359,-0.65434 -3.00802,-1.63341 -3.34318,-2.1757 -0.33623,-0.54403 1.67217,-4.11156 4.48068,-7.95905 2.79953,-3.83518 7.54659,-10.347 10.54902,-14.4707 3.00243,-4.1237 5.45896,-8.37747 5.45896,-9.45282 0,-1.11722 -4.36051,-7.91245 -10.17408,-15.85486 -5.59574,-7.64482 -10.21403,-14.48695 -10.26286,-15.20473 -0.11619,-1.70807 5.26188,-4.36918 8.83354,-4.37091 3.56513,-0.002 6.70163,2.71943 15.59938,13.53359 3.75644,4.56551 7.11277,8.30092 7.4585,8.30092 0.34574,0 3.16722,-3.25105 6.26995,-7.22455 6.53374,-8.36739 11.89113,-13.46499 14.96097,-14.23547 2.54748,-0.63938 7.77118,0.912 9.30868,2.76457 1.12414,1.35451 1.59685,0.58728 -15.57268,25.27587 -2.52204,3.62652 -4.58553,6.90498 -4.58553,7.28546 0,0.38048 4.71655,7.27539 10.48122,15.32202 5.76467,8.04664 10.48121,14.92943 10.48121,15.29511 0,1.9677 -3.83852,3.89184 -7.76398,3.89184 -5.32215,0 -7.02898,-1.32088 -15.94182,-12.33694 -3.79343,-4.68859 -7.21649,-8.63362 -7.60679,-8.76672 -0.3903,-0.1331 -2.63541,2.22517 -4.98912,5.24061 -11.85005,15.18156 -16.58439,18.21385 -23.64207,15.14246 z"
       id="path15090" />
    <path
       style="opacity:0.37;fill:#ffffff;stroke-width:0.873435"
       d="m 445.61671,492.08963 -2.45527,-1.33102 1.71646,-2.90918 c 0.94405,-1.60005 5.29224,-7.89625 9.66265,-13.99155 7.80309,-10.88278 9.52652,-14.21489 8.47958,-16.39452 -0.8826,-1.8375 -2.39529,-4.11677 -11.23605,-16.93014 -4.68379,-6.78847 -8.51598,-12.5758 -8.51598,-12.86073 0,-1.0947 5.28814,-3.18324 8.05991,-3.18324 3.93833,0 5.43037,1.20146 14.66383,11.80796 4.38317,5.03496 8.43305,9.13568 8.99973,9.11271 0.56668,-0.023 3.58512,-3.20858 6.70765,-7.07914 3.12253,-3.87056 7.44603,-8.60754 9.60778,-10.52662 3.58732,-3.18461 4.26239,-3.45197 7.73258,-3.06249 2.09116,0.2347 4.43093,1.05554 5.19948,1.8241 1.28087,1.28087 0.54484,2.65433 -8.82838,16.47404 -5.62417,8.29217 -10.22395,15.60883 -10.22174,16.25923 0.002,0.65041 4.37598,7.45917 9.71949,15.13059 5.34351,7.67142 9.76527,14.58415 9.82614,15.36162 0.14377,1.8364 -3.45795,3.67014 -7.24074,3.68646 -2.51804,0.0109 -3.81588,-0.83991 -8.30784,-5.44609 -2.92799,-3.00243 -7.36867,-7.81724 -9.86819,-10.69957 l -4.54457,-5.24061 -3.30612,3.56065 c -1.81837,1.95835 -5.43043,6.02983 -8.0268,9.04772 -7.37831,8.5762 -12.0569,10.51598 -17.8236,7.38982 z"
       id="path15092" />
    <path
       style="opacity:0.37;fill:#ffffff;stroke-width:0.873435"
       d="m 447.89663,492.48015 c -1.53762,-0.42025 -3.03372,-1.14928 -3.32468,-1.62006 -0.29096,-0.47078 3.81667,-7.22116 9.12806,-15.00083 6.82422,-9.99552 9.65708,-14.88818 9.65708,-16.6788 0,-1.78669 -2.73846,-6.53476 -9.28621,-16.10087 -5.10742,-7.46182 -9.33266,-14.18346 -9.38942,-14.93697 -0.1422,-1.88757 6.11378,-3.65746 9.18581,-2.59877 1.26585,0.43624 6.3082,5.09396 11.20522,10.3505 4.89701,5.25653 9.41969,9.55733 10.0504,9.55733 0.6307,0 3.97182,-3.32761 7.42472,-7.39469 8.91838,-10.50474 11.61091,-12.6943 15.61032,-12.6943 1.81303,0 4.02725,0.5344 4.9205,1.18756 1.91104,1.39739 2.26002,0.72645 -10.20659,19.62285 -4.22338,6.40165 -7.67888,12.28598 -7.67888,13.0763 0,0.79032 4.40866,8.07308 9.79702,16.1839 9.29769,13.99537 9.71208,14.80906 8.13069,15.96541 -0.91648,0.67015 -3.2289,1.21845 -5.1387,1.21845 -3.10564,0 -4.03824,-0.57655 -8.8303,-5.45897 -2.94686,-3.00243 -7.40137,-7.79744 -9.89892,-10.65557 l -4.54101,-5.1966 -4.56965,5.1966 c -12.93214,14.70639 -16.78126,17.47098 -22.24546,15.97753 z"
       id="path15094" />
    <path
       style="opacity:0.37;fill:#ffffff;stroke-width:0.873435"
       d="m 446.94197,491.70236 c -2.45951,-0.9871 -2.73984,-0.3982 8.25372,-17.33925 5.42432,-8.35887 8.1614,-13.40739 8.1614,-15.05362 0,-2.64137 -1.36979,-5.07963 -11.68968,-20.80786 -6.98345,-10.64326 -7.15634,-11.63236 -2.22272,-12.71596 3.59394,-0.78937 6.70269,1.36725 16.30349,11.31012 4.43763,4.59574 8.5646,8.35992 9.17106,8.36485 0.60646,0.005 5.22964,-4.32261 10.27372,-9.61674 9.13579,-9.58867 9.18683,-9.62566 13.26833,-9.61674 2.2535,0.005 4.33305,0.39046 4.62123,0.85674 0.69995,1.13255 -1.01819,4.31684 -8.62682,15.9885 -9.64758,14.7994 -9.79195,15.09505 -8.73402,17.88602 0.50008,1.31927 4.56888,8.05391 9.04178,14.96587 4.4729,6.91196 8.17807,13.17515 8.23373,13.9182 0.15962,2.13123 -5.02294,2.83445 -8.37052,1.1358 -1.53714,-0.77999 -6.53907,-5.54513 -11.1154,-10.58922 -4.57633,-5.04409 -8.52662,-9.23286 -8.77842,-9.30839 -0.2518,-0.0755 -3.79118,3.62634 -7.86527,8.22637 -7.16705,8.09226 -13.76155,13.36906 -16.56465,13.25474 -0.74663,-0.0304 -2.25906,-0.41719 -3.36096,-0.85943 z"
       id="path15096" />
    <path
       style="opacity:0.37;fill:#ffffff;stroke-width:0.873435"
       d="m 446.3089,490.84405 c -0.30582,-0.49483 2.9656,-6.48877 7.26982,-13.31988 9.53168,-15.12749 9.77837,-15.60128 9.77837,-18.78027 0,-2.40106 -1.21446,-4.55999 -12.99501,-23.10106 -3.85683,-6.07014 -4.30338,-8.72656 -1.5559,-9.25568 3.54462,-0.68263 6.54858,1.2478 15.48079,9.94844 5.1473,5.01385 9.90074,9.11608 10.56321,9.11608 0.66247,0 5.12757,-3.96313 9.92245,-8.80696 4.79488,-4.84383 9.67059,-9.18356 10.83492,-9.64385 2.5305,-1.00037 7.0541,-0.17592 7.0541,1.28564 0,0.57098 -3.3783,6.33718 -7.50735,12.81376 -8.87409,13.91941 -9.96134,15.91521 -9.96134,18.28548 0,0.98601 3.93046,8.15692 8.73435,15.93537 4.80389,7.77844 8.73434,14.45161 8.73434,14.82926 0,1.33757 -4.43853,1.77571 -7.04626,0.69556 -1.45485,-0.60262 -6.75818,-5.46196 -11.78518,-10.79852 l -9.14,-9.70285 -8.06851,8.54004 c -4.43767,4.69701 -9.42226,9.51182 -11.07685,10.69957 -3.07881,2.21012 -8.2156,2.91082 -9.23595,1.25987 z"
       id="path15098" />
    <path
       style="opacity:0.37;fill:#ffffff;stroke-width:0.873435"
       d="m 447.67722,490.90813 c -1.02745,-0.64465 0.34052,-3.44092 7.20583,-14.72941 6.2958,-10.35206 8.47404,-14.69239 8.47404,-16.88526 0,-2.94291 -1.35192,-5.55048 -11.21359,-21.62853 -4.60059,-7.50062 -5.38972,-10.03022 -3.3707,-10.80499 2.29646,-0.88123 6.80999,2.05405 15.8237,10.29062 5.07514,4.63758 9.79254,8.30426 10.48311,8.14818 0.69057,-0.15607 5.61197,-4.31249 10.93646,-9.23648 8.4259,-7.79213 10.07569,-8.95271 12.72651,-8.95271 1.95753,0 3.04564,0.41656 3.04564,1.16595 0,0.64128 -2.02112,4.47347 -4.49138,8.51599 -2.47027,4.04252 -6.2042,10.15114 -8.29763,13.5747 -2.09344,3.42356 -3.80625,7.21799 -3.80625,8.43208 0,2.34281 2.5906,7.25969 11.24561,21.34381 2.94231,4.78797 5.34965,9.16053 5.34965,9.7168 0,0.58219 -1.35784,1.01141 -3.19962,1.01141 -2.92213,0 -4.10003,-0.9004 -13.58161,-10.38199 l -10.38198,-10.38198 -8.90934,9.16039 c -10.30142,10.5917 -14.94016,13.58539 -18.03845,11.64142 z"
       id="path15100" />
    <path
       style="opacity:0.37;fill:#ffffff;stroke-width:0.873435"
       d="m 448.11678,488.9823 c 0.32957,-1.03839 3.7467,-7.22886 7.59361,-13.7566 3.91212,-6.63837 7.17988,-13.24548 7.4153,-14.99304 0.47674,-3.53876 -0.61329,-5.99434 -8.205,-18.48403 -2.70401,-4.44857 -5.4584,-9.3746 -6.12087,-10.94673 -1.06165,-2.51942 -1.04015,-2.92147 0.18133,-3.3902 2.10046,-0.80602 4.83395,0.78114 11.78399,6.84219 9.54349,8.32278 13.21838,11.19926 14.28788,11.18369 0.53288,-0.008 4.89933,-3.58557 9.70322,-7.95069 9.57246,-8.69813 13.34484,-11.06117 15.62294,-9.78628 1.24256,0.69537 0.30308,2.71314 -6.86171,14.73734 -5.50711,9.24223 -8.30527,14.81461 -8.31294,16.55478 -0.008,1.75873 2.70789,7.22407 8.24117,16.58565 6.63906,11.23242 8.00189,14.10294 6.96985,14.6805 -2.47884,1.38723 -5.26938,-0.52691 -15.41867,-10.57625 l -10.24057,-10.13974 -8.8175,8.96668 c -9.35643,9.51473 -13.12143,12.35217 -16.39717,12.35745 -1.67752,0.003 -1.92149,-0.31999 -1.42486,-1.88472 z"
       id="path15102" />
    <path
       style="opacity:0.37;fill:#ffffff;stroke-width:0.873435"
       d="m 448.5087,489.56092 c 0,-0.72015 3.22641,-6.91062 7.1698,-13.7566 9.68008,-16.80526 9.68007,-16.87634 -0.008,-33.38927 -7.19689,-12.26712 -7.88296,-13.88341 -6.30665,-14.85762 1.38273,-0.85458 4.24426,1.05609 14.55398,9.71784 5.35262,4.49703 10.26569,8.16691 10.91793,8.15529 0.65224,-0.0116 4.33026,-2.79887 8.17337,-6.1939 9.74398,-8.60787 13.47383,-11.25367 15.8646,-11.25367 1.99687,0 2.02443,0.0927 0.84426,2.83866 -0.671,1.56127 -4.21369,7.93859 -7.87264,14.17183 -4.34568,7.40313 -6.65018,12.24926 -6.64558,13.97495 0.005,1.69288 2.51617,7.02789 6.9925,14.85279 7.25367,12.67987 8.37245,15.06974 7.47483,15.96735 -1.27209,1.27209 -5.48056,-1.71616 -14.96133,-10.62335 l -10.13462,-9.52148 -8.44581,8.35278 c -11.238,11.11422 -17.61688,15.30156 -17.61688,11.5644 z"
       id="path15104" />
    <path
       style="opacity:0.37;fill:#ffffff;stroke-width:0.873435"
       d="m 448.97521,489.02957 c 0.35142,-1.10725 3.62173,-7.33652 7.26734,-13.84283 8.85151,-15.79722 8.87892,-16.75066 0.88005,-30.60849 -7.21666,-12.50268 -8.86711,-15.75976 -8.28226,-16.34461 1.23997,-1.23996 5.36552,1.27593 14.52536,8.85802 5.51974,4.56899 10.62546,8.3172 11.34604,8.32937 0.72059,0.0122 5.04409,-3.18222 9.60779,-7.09863 11.1566,-9.57422 15.72182,-12.25946 15.72182,-9.24749 0,0.60055 -3.34089,6.97594 -7.42419,14.16753 -4.87619,8.58803 -7.41739,13.98376 -7.40436,15.7217 0.0191,2.54742 1.10604,4.80542 9.68941,20.12858 4.76413,8.50499 5.2988,9.82893 4.2349,10.48645 -1.06809,0.66012 -7.39829,-3.7418 -11.32385,-7.87442 -1.68136,-1.77005 -5.32539,-5.1946 -8.09786,-7.61011 l -5.04084,-4.39184 -7.18724,6.87467 c -8.99919,8.60781 -14.45903,13.02552 -17.09961,13.83578 -1.83924,0.56437 -1.98536,0.42123 -1.4125,-1.38368 z"
       id="path15106" />
    <path
       style="opacity:0.37;fill:#ffffff;stroke-width:0.873435"
       d="m 449.05817,490.25517 c -0.29999,-0.29999 1.46673,-4.27802 3.92606,-8.84006 10.45151,-19.38751 10.53872,-19.58915 10.12643,-23.41327 -0.25458,-2.36128 -2.64879,-7.64404 -6.92739,-15.28511 -7.73118,-13.807 -8.12103,-14.73374 -6.19801,-14.73374 1.52005,0 7.37979,4.17632 17.3786,12.38601 3.4047,2.79547 6.74559,5.0752 7.4242,5.06606 0.67861,-0.009 4.57472,-2.82009 8.65803,-6.24656 9.68519,-8.12724 13.94584,-11.20551 15.5096,-11.20551 1.70753,0 1.37987,0.76039 -6.81647,15.81858 -4.05106,7.44254 -6.94626,13.79498 -6.94626,15.24099 0,1.44987 2.9015,7.7969 6.98748,15.28511 3.84311,7.04312 6.98748,13.46005 6.98748,14.25985 0,1.3207 -0.23063,1.33493 -2.51231,0.15503 -1.38177,-0.71454 -5.80353,-4.33947 -9.82614,-8.0554 -4.02261,-3.71593 -8.40157,-7.74153 -9.73102,-8.94578 l -2.4172,-2.18955 -5.44372,5.26252 c -11.74609,11.35511 -18.83828,16.78191 -20.17936,15.44083 z"
       id="path15108" />
    <path
       style="opacity:0.37;fill:#ffffff;stroke-width:0.873435"
       d="m 449.38214,489.4528 c 0,-0.80429 1.73403,-4.64658 3.85341,-8.53842 8.09469,-14.86441 10.12154,-19.19571 10.12154,-21.62936 0,-2.38229 -3.38855,-9.58894 -11.43263,-24.31455 -5.58055,-10.21582 -2.38249,-9.24801 14.01144,4.24019 8.94225,7.3573 8.57847,7.32633 15.79349,1.34427 10.4703,-8.68104 15.78487,-12.57194 17.172,-12.57194 1.76646,0 1.44856,0.75219 -6.38284,15.10246 -3.61546,6.62499 -6.79222,13.39282 -7.05946,15.03962 -0.4158,2.5623 0.53785,4.87035 6.61147,16.00123 3.90354,7.15387 7.09736,13.66142 7.09736,14.46122 0,1.3207 -0.23063,1.33493 -2.51231,0.15503 -1.38177,-0.71454 -5.80353,-4.33947 -9.82614,-8.0554 -4.02261,-3.71593 -8.40157,-7.74153 -9.73102,-8.94578 l -2.4172,-2.18955 -5.44372,5.26252 c -8.10026,7.83064 -14.63645,13.40199 -17.39872,14.83041 -2.22091,1.14848 -2.45667,1.13006 -2.45667,-0.19195 z"
       id="path15110" />
    <path
       style="opacity:0.37;fill:#ffffff;stroke-width:0.873435"
       d="m 449.38214,489.4528 c 0,-0.80429 1.73403,-4.64658 3.85341,-8.53842 8.09668,-14.86805 10.12154,-19.19599 10.12154,-21.63371 0,-2.58734 -3.7847,-10.76787 -9.65507,-20.86918 -3.44162,-5.92207 -5.06758,-10.43093 -3.75949,-10.42524 1.37176,0.006 5.90851,3.13295 13.8517,9.54733 11.45206,9.24793 10.59679,9.10394 17.94677,3.02135 13.30049,-11.007 18.30035,-14.26112 18.30035,-11.91061 0,0.36373 -2.78525,5.76811 -6.18945,12.00973 -7.03871,12.9055 -8.65894,16.47319 -8.65894,19.06665 0,1.00518 2.91834,7.15819 6.48519,13.67335 3.56686,6.51515 6.7631,12.95299 7.10276,14.30631 l 0.61756,2.46058 -2.62758,-1.35878 c -1.44517,-0.74733 -5.91881,-4.39908 -9.94142,-8.11501 -4.02261,-3.71593 -8.40157,-7.74153 -9.73102,-8.94578 l -2.4172,-2.18955 -5.44372,5.26252 c -8.10026,7.83064 -14.63645,13.40199 -17.39872,14.83041 -2.22091,1.14848 -2.45667,1.13006 -2.45667,-0.19195 z"
       id="path15112" />
    <path
       style="opacity:0.37;fill:#ffffff;stroke-width:0.873435"
       d="m 449.85112,488.03162 c 0.32268,-1.08087 1.87859,-4.3235 3.45757,-7.20583 7.39163,-13.49299 10.0484,-19.21041 10.0484,-21.62437 0,-1.58104 -2.85207,-8.08267 -7.2004,-16.41417 -3.96022,-7.58786 -6.91399,-14.08253 -6.56393,-14.43259 0.79415,-0.79415 7.91707,3.90593 15.94792,10.52328 9.6401,7.94336 8.46179,8.00575 19.63199,-1.03942 10.15608,-8.22397 13.62698,-10.51494 14.54289,-9.59904 0.30265,0.30265 -2.36697,5.96965 -5.93247,12.59334 -7.51405,13.95894 -8.59013,16.29798 -8.59013,18.67218 0,0.95867 3.14437,7.75402 6.98748,15.10078 3.84311,7.34676 6.98748,13.82907 6.98748,14.40514 0,2.04373 -3.89799,-0.91037 -18.77421,-14.2281 l -5.77448,-5.16952 -5.41271,5.26593 c -7.93558,7.72039 -17.02937,15.11762 -18.58485,15.11762 -0.99906,0 -1.20242,-0.51863 -0.77055,-1.96523 z"
       id="path15114" />
    <path
       style="opacity:0.37;fill:#ffffff;stroke-width:0.873435"
       d="m 449.38214,489.23818 c 0,-0.41727 3.14436,-6.85788 6.98748,-14.31246 3.84311,-7.45459 6.98747,-14.62091 6.98747,-15.92516 0,-1.30426 -3.24262,-8.5857 -7.20583,-16.18098 -3.96321,-7.59528 -6.93173,-14.08551 -6.5967,-14.42273 0.84514,-0.85068 5.31709,2.04821 15.64071,10.13891 4.85354,3.80376 9.14926,6.91592 9.54606,6.91592 0.39679,0 5.16635,-3.52123 10.59903,-7.82496 10.3277,-8.18153 13.49339,-10.26904 14.31974,-9.44269 0.27215,0.27215 -2.87162,6.95471 -6.98616,14.85013 -4.11454,7.89542 -7.48098,15.12277 -7.48098,16.06078 0,0.938 3.14437,7.84469 6.98748,15.34818 3.84311,7.5035 6.98748,14.08653 6.98748,14.62896 0,1.97595 -4.04204,-1.10049 -18.77421,-14.28926 l -5.77448,-5.16952 -5.41271,5.26593 c -11.48882,11.17727 -19.82438,17.21478 -19.82438,14.35895 z"
       id="path15116" />
  </g>
</svg>
