<?xml version="1.0" encoding="UTF-8" standalone="no"?>
<!-- Created with Inkscape (http://www.inkscape.org/) -->

<svg
   version="1.1"
   id="svg15118"
   width="512"
   height="512"
   viewBox="0 0 512 512"
   sodipodi:docname="ub3.png"
   inkscape:export-filename="ub4.png"
   inkscape:export-xdpi="96"
   inkscape:export-ydpi="96"
   xmlns:inkscape="http://www.inkscape.org/namespaces/inkscape"
   xmlns:sodipodi="http://sodipodi.sourceforge.net/DTD/sodipodi-0.dtd"
   xmlns="http://www.w3.org/2000/svg"
   xmlns:svg="http://www.w3.org/2000/svg">
  <defs
     id="defs15122" />
  <sodipodi:namedview
     id="namedview15120"
     pagecolor="#ffffff"
     bordercolor="#000000"
     borderopacity="0.25"
     inkscape:showpageshadow="2"
     inkscape:pageopacity="0.0"
     inkscape:pagecheckerboard="0"
     inkscape:deskcolor="#d1d1d1"
     showgrid="false" />
  <g
     inkscape:groupmode="layer"
     inkscape:label="Image"
     id="g15124">
    <path
       style="fill:#000000;stroke-width:3.53013"
       d="M 196.05807,456.51848 C 104.65996,442.92541 41.284777,402.39638 17.692488,342.45191 12.109139,328.26543 11.278776,309.49386 12.19593,218.18951 l 1.080302,-107.5515 h 16.429829 16.429828 l 1.11193,61.43751 1.111889,61.4375 h 9.658644 c 8.092225,0 10.084711,-1.96815 12.285856,-12.1358 2.366101,-10.9296 3.813774,-12.13581 14.565125,-12.13581 23.461507,0 24.932137,1.62981 24.932137,27.63016 0,23.44583 0.21236,23.94701 10.14941,23.94701 h 10.14944 l 1.14606,-40.19985 1.14611,-40.19985 17.5151,-1.72668 c 9.63326,-0.94966 18.41295,-1.06343 19.51042,-0.25273 1.09743,0.81064 2.17958,42.54594 2.40475,92.74521 0.22509,50.19923 1.88931,94.68454 3.69803,98.85622 2.19239,5.05659 3.42508,5.81508 3.69802,2.27546 0.43979,-5.70316 8.62271,-7.07578 14.9909,-2.51457 2.14615,1.53718 15.39599,5.63302 29.44411,9.10186 20.27695,5.00692 35.09403,6.24465 71.8805,6.00458 25.48615,-0.16626 50.95937,-1.39553 56.60712,-2.73153 l 10.26864,-2.4291 -10.26864,-0.30097 -10.26864,-0.30097 1.03438,-132.73695 c 0.70628,-90.63309 2.58338,-137.03589 5.91774,-146.28974 3.1979,-8.875151 10.88402,-17.985171 22.26931,-26.394887 21.82835,-16.123051 51.54974,-23.091369 100.16347,-23.483416 l 34.91338,-0.281551 1.08565,96.919104 c 1.08284,96.66923 0.0329,106.69204 -13.9824,133.67272 -1.6045,3.0885 -0.48625,4.47429 3.15107,3.90494 7.46251,-1.16811 9.76934,29.19746 3.78412,49.81164 -18.37344,63.28142 -93.40136,112.13422 -189.83242,123.60519 -22.55569,2.68314 -27.74891,2.33872 -40.86196,-2.70986 -14.80435,-5.6997 -14.99231,-5.69888 -12.95468,0.0564 1.81772,5.13432 -0.0998,5.80565 -15.86817,5.55501 -9.86468,-0.15685 -29.95006,-2.07188 -44.63422,-4.25575 z m 36.73825,-9.22828 C 212.7058,436.35366 192.89299,417.18045 178.05123,394.31241 l -12.79908,-19.72068 -2.05373,-94.81918 c -1.12955,-52.15052 -3.44,-94.81545 -5.13432,-94.81093 -1.69433,0.003 -6.72367,0.009 -11.17627,0.009 -7.59099,0 -8.16719,2.50628 -9.24178,40.19982 l -1.1461,40.19987 h -16.42983 -16.42983 l -1.19963,-23.51301 c -0.65982,-12.93222 -2.970261,-23.68378 -5.134316,-23.89237 -16.434265,-1.58402 -18.325379,-0.84058 -18.728197,7.36225 -0.563749,11.4791 -6.188829,14.8815 -22.678175,13.71716 l -13.87154,-0.97948 -1.11193,-61.43751 -1.111888,-61.4375 H 29.386665 18.968757 l 1.276105,109.98072 c 1.204019,103.76706 1.773148,110.95224 10.073539,127.17669 27.093814,52.95955 85.703489,86.73189 170.094399,98.0126 46.17163,6.17188 48.88609,5.91463 32.38352,-3.06875 z m 123.04454,-4.33303 c 53.88007,-13.40706 99.404,-41.80978 119.66341,-74.65888 10.32361,-16.73901 20.45239,-45.46002 20.20693,-57.29847 -0.18319,-8.83826 -0.63235,-8.5964 -10.76832,5.80016 -16.69812,23.71709 -53.58305,48.79836 -90.08187,61.25449 -51.24558,17.48882 -134.1307,20.08964 -180.8384,5.67446 -8.2203,-2.53699 -13.85708,-3.03264 -13.85708,-1.21846 0,1.68202 -1.8272,2.22406 -4.06043,1.2046 -2.32511,-1.06143 -3.01886,0.15109 -1.62331,2.83747 1.34039,2.5801 4.40587,3.79232 6.81214,2.69381 2.68172,-1.2242 3.42685,-0.17202 1.92516,2.71857 -1.35344,2.60523 1.0916,7.52375 5.46317,10.98967 4.35218,3.45064 7.9131,7.41197 7.9131,8.80298 0,2.996 29.71108,24.23123 47.23575,33.7605 10.59063,5.75883 16.11031,6.50048 39.27575,5.27728 14.82439,-0.78272 38.55469,-4.30993 52.734,-7.83818 z m -106.38585,4.82086 c 0,-0.63 -3.23462,-3.01924 -7.18805,-5.30941 -6.51467,-3.77384 -6.65995,-3.66653 -1.55081,1.14549 5.36586,5.05381 8.73886,6.66098 8.73886,4.16392 z m -16.42983,-9.0031 c 0,-0.57572 -4.1588,-3.64759 -9.24177,-6.82639 l -9.24178,-5.77964 7.82466,6.82639 c 7.35325,6.4151 10.65889,8.20756 10.65889,5.77964 z M 212.4879,420.47247 c 0,-0.63 -3.23462,-3.01923 -7.18805,-5.30941 -6.51467,-3.77384 -6.65996,-3.66653 -1.55081,1.1455 5.36586,5.0538 8.73886,6.66098 8.73886,4.16391 z m -19.28616,-21.57102 c -3.757,-5.81942 -7.5601,-10.04211 -8.45133,-9.3838 -1.879,1.38791 10.58984,19.96452 13.40041,19.96452 1.035,0 -1.19211,-4.76133 -4.94908,-10.58072 z m 210.28965,-42.35593 c 21.07302,-9.12197 52.07254,-33.44227 63.24445,-49.61769 4.70949,-6.81871 13.19861,-22.8876 18.86469,-35.70863 10.11157,-22.88026 10.30191,-25.07657 10.30191,-118.87359 V 56.782957 l -33.88652,1.320102 c -42.29724,1.647769 -74.45099,11.594334 -91.83026,28.40719 -13.7212,13.27395 -13.07995,5.3818 -14.93171,183.767881 l -1.05878,101.99509 16.29523,-4.24811 c 8.96239,-2.33647 23.81282,-7.50229 33.00099,-11.47959 z m 14.36937,5.69691 c 0,-0.83434 -3.69672,-0.0555 -8.21492,1.73048 -4.5182,1.78608 -8.21491,3.93008 -8.21491,4.76442 0,0.83434 3.69671,0.0555 8.21491,-1.73047 4.5182,-1.78609 8.21492,-3.93009 8.21492,-4.76443 z m 14.3761,-7.37138 c 4.08893,-3.33734 6.51023,-6.0679 5.38068,-6.0679 -1.12955,0 -5.39921,2.73056 -9.48814,6.0679 -4.08893,3.33735 -6.51024,6.0679 -5.38069,6.0679 1.12955,0 5.39921,-2.73055 9.48815,-6.0679 z m 24.64474,-18.2037 c 4.08893,-3.33735 6.51024,-6.0679 5.38068,-6.0679 -1.12955,0 -5.39921,2.73055 -9.48814,6.0679 -4.08893,3.33734 -6.51024,6.0679 -5.38069,6.0679 1.12956,0 5.39922,-2.73056 9.48815,-6.0679 z m 26.69847,-31.42506 c 0,-3.85475 -1.89723,-2.13356 -7.88513,7.15345 -4.61123,7.15184 -4.52572,7.24866 1.49734,1.69559 3.51331,-3.23911 6.38779,-7.22117 6.38779,-8.84904 z M 71.311726,191.67247 c -1.252117,-1.49649 -1.179908,-7.7126 0.160602,-13.81361 2.3783,-10.82601 2.874111,-11.09276 20.619188,-11.09276 h 18.182314 l -1.26304,12.89429 c -1.25208,12.78228 -1.41145,12.90227 -18.342754,13.81361 -9.393837,0.50564 -18.104151,-0.30506 -19.35631,-1.80153 z m 30.274834,-11.25359 c 0,-6.0679 -2.053728,-7.58488 -10.268642,-7.58488 -8.214915,0 -10.268643,1.51698 -10.268643,7.58488 0,6.0679 2.053728,7.58488 10.268643,7.58488 8.214914,0 10.268642,-1.51698 10.268642,-7.58488 z m 1.6185,-24.01533 c -1.2271,-2.36205 -1.63119,-8.16448 -0.89793,-12.89429 1.15206,-7.43142 3.31041,-8.72249 15.8883,-9.50394 13.84538,-0.86019 14.47821,-1.39104 12.97751,-10.88603 -2.05791,-13.02035 7.96843,-20.72085 25.35263,-19.4715 12.28741,0.88303 12.83403,1.50381 12.83403,14.5751 0,13.58652 -0.0748,13.65736 -15.40296,14.59443 -15.29461,0.935 -15.40297,1.03636 -15.40297,14.41126 v 13.46962 h -16.55872 c -10.49061,0 -17.37639,-1.5738 -18.78989,-4.29465 z m 27.1337,-9.35813 c 0,-6.0679 -2.05373,-7.58487 -10.26864,-7.58487 -8.21492,0 -10.26865,1.51697 -10.26865,7.58487 0,6.0679 2.05373,7.58488 10.26865,7.58488 8.21491,0 10.26864,-1.51698 10.26864,-7.58488 z m 32.85966,-29.02405 c 0,-8.35923 -1.14631,-9.20594 -11.29551,-8.34336 -8.87198,0.75403 -11.57436,2.75012 -12.59519,9.30337 -1.16779,7.49665 -0.0205,8.34336 11.29551,8.34336 11.31699,0 12.59519,-0.94413 12.59519,-9.30337 z M 71.783262,117.4644 c -1.06149,-2.08584 -1.721353,-7.88827 -1.466321,-12.89429 0.419166,-8.227921 1.920154,-9.191261 15.632653,-10.033181 14.252176,-0.87503 15.245156,-1.60848 16.429826,-12.13581 1.22008,-10.842033 1.82556,-11.234656 18.71756,-12.137408 l 17.45669,-0.93294 v 13.502628 c 0,13.91531 -3.97219,17.185781 -20.87323,17.185781 -6.26621,0 -7.87897,2.17356 -7.87897,10.61883 0,10.52432 -0.1606,10.61883 -18.044096,10.61883 -10.667641,0 -18.833101,-1.55035 -19.974112,-3.79244 z m 29.803298,-9.86034 c 0,-6.0679 -2.053728,-7.58488 -10.268642,-7.58488 -8.214915,0 -10.268643,1.51698 -10.268643,7.58488 0,6.0679 2.053728,7.58488 10.268643,7.58488 8.214914,0 10.268642,-1.51698 10.268642,-7.58488 z m 28.7522,-22.754631 c 0,-7.685998 -1.59735,-9.101852 -10.26864,-9.101852 -8.6713,0 -10.26865,1.415854 -10.26865,9.101852 0,7.686 1.59735,9.10185 10.26865,9.10185 8.67129,0 10.26864,-1.41585 10.26864,-9.10185 z M 11.222504,61.920346 V 48.093115 l 17.456693,0.93294 c 17.371832,0.928419 17.462812,0.995621 18.719735,13.827231 l 1.263043,12.894291 H 29.94224 11.222504 Z m 28.7522,0.174452 c 0,-6.067902 -2.053729,-7.584877 -10.268643,-7.584877 -8.214914,0 -10.268643,1.516975 -10.268643,7.584877 0,6.067902 2.053729,7.584877 10.268643,7.584877 8.214914,0 10.268643,-1.516975 10.268643,-7.584877 z"
       id="path16190" />
    <path
       style="opacity:0.37;fill:#ffffff;stroke-width:1.23522"
       d="m 221.72256,452.50767 c -1.69843,-0.26553 -11.14789,-1.60198 -20.9988,-2.96989 C 121.40812,438.52396 66.109337,409.04736 36.796328,362.15747 29.386157,350.30396 25.806554,341.13636 24.163734,329.80458 22.824274,320.5653 20.854022,238.63804 20.04208,158.41737 l -0.428198,-42.30639 h 9.519411 9.51941 l 0.716939,17.60193 c 0.394316,9.68106 1.050187,37.05261 1.457492,60.82566 0.407305,23.77305 1.021986,43.50574 1.365957,43.85042 0.343972,0.34468 7.297032,0.62669 15.451247,0.62669 14.665454,0 14.857692,-0.0369 17.76959,-3.41982 1.831001,-2.12712 3.257098,-5.78199 3.772713,-9.6689 0.986815,-7.43897 3.597737,-9.01918 12.869803,-7.78919 5.805995,0.77019 5.951093,0.89615 7.32705,6.36057 1.141036,4.53147 3.572246,29.95212 3.721606,38.913 0.0326,1.95405 1.69672,2.16164 17.32916,2.16164 h 17.29312 l 0.0738,-18.83715 c 0.0406,-10.36044 0.5221,-27.02009 1.07007,-37.02146 1.24464,-22.71659 2.07062,-24.4309 11.77126,-24.4309 5.28186,0 6.82417,0.45295 7.36051,2.16164 1.33004,4.23744 3.13677,42.45854 4.36461,92.33294 0.68575,27.85428 1.55832,60.85612 1.93906,73.33742 l 0.69226,22.69327 10.70136,16.13683 c 16.4753,24.84352 36.92173,44.9194 57.4481,56.407 3.90639,2.18621 7.10253,4.1998 7.10253,4.47463 0,0.6034 -14.1904,0.35869 -18.52834,-0.31953 z"
       id="path16214" />
    <path
       style="opacity:0.37;fill:#ffffff;stroke-width:1.23522"
       d="m 221.72256,452.50767 c -1.69843,-0.26553 -11.14789,-1.60198 -20.9988,-2.96989 C 121.40812,438.52396 66.109337,409.04736 36.796328,362.15747 29.386157,350.30396 25.806554,341.13636 24.163734,329.80458 22.824274,320.5653 20.854022,238.63804 20.04208,158.41737 l -0.428198,-42.30639 h 9.519411 9.51941 l 0.716939,17.60193 c 0.394316,9.68106 1.050187,37.05261 1.457492,60.82566 0.407305,23.77305 1.021986,43.50574 1.365957,43.85042 0.343972,0.34468 7.297032,0.62669 15.451247,0.62669 14.665454,0 14.857692,-0.0369 17.76959,-3.41982 1.831001,-2.12712 3.257098,-5.78199 3.772713,-9.6689 0.986815,-7.43897 3.597737,-9.01918 12.869803,-7.78919 5.805995,0.77019 5.951093,0.89615 7.32705,6.36057 1.141036,4.53147 3.572246,29.95212 3.721606,38.913 0.0326,1.95405 1.69672,2.16164 17.32916,2.16164 h 17.29312 l 0.0738,-18.83715 c 0.0406,-10.36044 0.5221,-27.02009 1.07007,-37.02146 1.24464,-22.71659 2.07062,-24.4309 11.77126,-24.4309 5.28186,0 6.82417,0.45295 7.36051,2.16164 1.33004,4.23744 3.13677,42.45854 4.36461,92.33294 0.68575,27.85428 1.55832,60.85612 1.93906,73.33742 l 0.69226,22.69327 10.70136,16.13683 c 16.4753,24.84352 36.92173,44.9194 57.4481,56.407 3.90639,2.18621 7.10253,4.1998 7.10253,4.47463 0,0.6034 -14.1904,0.35869 -18.52834,-0.31953 z"
       id="path16216" />
    <path
       style="opacity:0.37;fill:#ffffff;stroke-width:1.23522"
       d="m 221.72256,452.50767 c -1.69843,-0.26553 -11.14789,-1.60198 -20.9988,-2.96989 C 121.40812,438.52396 66.109337,409.04736 36.796328,362.15747 29.386157,350.30396 25.806554,341.13636 24.163734,329.80458 22.824274,320.5653 20.854022,238.63804 20.04208,158.41737 l -0.428198,-42.30639 h 9.519411 9.51941 l 0.716939,17.60193 c 0.394316,9.68106 1.050187,37.05261 1.457492,60.82566 0.407305,23.77305 1.021986,43.50574 1.365957,43.85042 0.343972,0.34468 7.297032,0.62669 15.451247,0.62669 14.665454,0 14.857692,-0.0369 17.76959,-3.41982 1.831001,-2.12712 3.257098,-5.78199 3.772713,-9.6689 0.986815,-7.43897 3.597737,-9.01918 12.869803,-7.78919 5.805995,0.77019 5.951093,0.89615 7.32705,6.36057 1.141036,4.53147 3.572246,29.95212 3.721606,38.913 0.0326,1.95405 1.69672,2.16164 17.32916,2.16164 h 17.29312 l 0.0738,-18.83715 c 0.0406,-10.36044 0.5221,-27.02009 1.07007,-37.02146 1.24464,-22.71659 2.07062,-24.4309 11.77126,-24.4309 5.28186,0 6.82417,0.45295 7.36051,2.16164 1.33466,4.25213 3.15508,42.51253 4.36381,91.71532 0.67592,27.5146 1.53769,60.45226 1.91502,73.1948 l 0.68608,23.16824 6.99284,10.80039 c 19.16272,29.59673 38.75421,49.45615 61.18764,62.02446 3.90639,2.18854 7.10253,4.20405 7.10253,4.47888 0,0.6034 -14.1904,0.35869 -18.52834,-0.31953 z"
       id="path16218" />
    <path
       style="opacity:0.37;fill:#ffffff;stroke-width:1.23522"
       d="m 221.72256,452.50767 c -1.69843,-0.26553 -11.14789,-1.60198 -20.9988,-2.96989 C 121.40812,438.52396 66.109337,409.04736 36.796328,362.15747 29.386157,350.30396 25.806554,341.13636 24.163734,329.80458 22.824274,320.5653 20.854022,238.63804 20.04208,158.41737 l -0.428198,-42.30639 h 9.519411 9.51941 l 0.716939,17.60193 c 0.394316,9.68106 1.050187,37.05261 1.457492,60.82566 0.407305,23.77305 1.022164,43.50574 1.366351,43.85042 0.344188,0.34468 7.296171,0.62669 15.448852,0.62669 14.552762,0 14.87519,-0.0605 17.682,-3.31845 1.741439,-2.02134 3.199421,-5.79401 3.729993,-9.65174 1.036206,-7.53412 3.683116,-9.14393 13.002114,-7.90772 5.805995,0.77019 5.951093,0.89615 7.32705,6.36057 1.141036,4.53147 3.572246,29.95212 3.721606,38.913 0.0326,1.95405 1.69672,2.16164 17.32916,2.16164 h 17.29312 l 0.0738,-18.83715 c 0.12413,-31.70344 1.76234,-54.74174 4.15192,-58.38869 1.89569,-2.89319 2.7259,-3.14938 9.12051,-2.81449 l 7.03499,0.36844 0.82694,8.36439 c 1.25259,12.67 3.41366,71.99606 4.72296,129.65529 l 1.17066,51.55407 8.85315,13.29515 c 12.5013,18.77372 17.91592,25.48917 29.68746,36.81966 11.11514,10.69867 18.58318,16.38829 29.77864,22.68723 3.90639,2.19785 7.10253,4.23324 7.10253,4.52306 0,0.62411 -14.08847,0.40188 -18.52834,-0.29227 z"
       id="path16220" />
    <path
       style="opacity:0.37;fill:#ffffff;stroke-width:1.23522"
       d="m 221.72256,452.50767 c -1.69843,-0.26553 -11.14789,-1.60198 -20.9988,-2.96989 C 121.40812,438.52396 66.109337,409.04736 36.796328,362.15747 29.386157,350.30396 25.806554,341.13636 24.163734,329.80458 22.839259,320.66868 20.912577,240.96244 20.020911,158.41737 l -0.457,-42.30639 h 9.544396 9.544396 l 0.716939,17.60193 c 0.394316,9.68106 1.050187,37.05261 1.457492,60.82566 0.407305,23.77305 1.022164,43.50574 1.366351,43.85042 0.344188,0.34468 7.296171,0.62669 15.448852,0.62669 14.552762,0 14.87519,-0.0605 17.682,-3.31845 1.741439,-2.02134 3.199421,-5.79401 3.729993,-9.65174 1.036206,-7.53412 3.683116,-9.14393 13.002114,-7.90772 5.805995,0.77019 5.951093,0.89615 7.32705,6.36057 1.141036,4.53147 3.572246,29.95212 3.721606,38.913 0.0326,1.95405 1.69672,2.16164 17.32916,2.16164 h 17.29312 l 0.0738,-18.83715 c 0.12413,-31.70344 1.76234,-54.74174 4.15192,-58.38869 1.89569,-2.89319 2.7259,-3.14938 9.12051,-2.81449 l 7.03499,0.36844 0.82694,8.36439 c 1.25259,12.67 3.41366,71.99606 4.72296,129.65529 l 1.17066,51.55407 8.85315,13.29515 c 12.5013,18.77372 17.91592,25.48917 29.68746,36.81966 11.11514,10.69867 18.58318,16.38829 29.77864,22.68723 3.90639,2.19785 7.10253,4.23324 7.10253,4.52306 0,0.62411 -14.08847,0.40188 -18.52834,-0.29227 z"
       id="path16222" />
    <path
       style="opacity:0.37;fill:#ffffff;stroke-width:1.23522"
       d="m 221.72256,452.50767 c -1.69843,-0.26553 -11.14789,-1.60198 -20.9988,-2.96989 C 122.3873,438.65993 67.898142,410.02871 38.004237,364.03711 30.273935,352.14409 26.594934,343.49498 24.606636,332.54016 22.877138,323.01123 21.067633,254.20628 20.011129,157.79976 l -0.456861,-41.68878 h 9.549218 9.549217 l 0.716939,17.60193 c 0.394316,9.68106 1.050187,37.05261 1.457492,60.82566 0.407305,23.77305 1.022164,43.50574 1.366351,43.85042 0.344188,0.34468 7.296171,0.62669 15.448852,0.62669 14.552762,0 14.87519,-0.0605 17.682,-3.31845 1.741439,-2.02134 3.199421,-5.79401 3.729993,-9.65174 1.036206,-7.53412 3.683116,-9.14393 13.002114,-7.90772 5.805995,0.77019 5.951093,0.89615 7.32705,6.36057 1.141036,4.53147 3.572246,29.95212 3.721606,38.913 0.0326,1.95405 1.69672,2.16164 17.32916,2.16164 h 17.29312 l 0.0738,-18.83715 c 0.12413,-31.70344 1.76234,-54.74174 4.15192,-58.38869 1.89569,-2.89319 2.7259,-3.14938 9.12051,-2.81449 l 7.03499,0.36844 0.82694,8.36439 c 1.25259,12.67 3.41366,71.99606 4.72296,129.65529 l 1.17066,51.55407 8.85315,13.29515 c 12.38301,18.5961 17.91374,25.49056 29.06748,36.23479 10.70951,10.31632 19.61955,17.12831 30.39862,23.24066 3.90639,2.21515 7.10253,4.26468 7.10253,4.5545 0,0.62411 -14.08847,0.40188 -18.52834,-0.29227 z"
       id="path16224" />
    <path
       style="opacity:0.37;fill:#ffffff;stroke-width:1.23522"
       d="m 221.72256,452.50767 c -1.69843,-0.26553 -11.14789,-1.60198 -20.9988,-2.96989 C 122.3873,438.65993 67.898142,410.02871 38.004237,364.03711 30.273935,352.14409 26.594934,343.49498 24.606636,332.54016 22.888219,323.07227 21.144397,257.06765 19.990048,157.79976 l -0.484784,-41.68878 h 9.57372 9.573719 l 0.716939,17.60193 c 0.394316,9.68106 1.050187,37.05261 1.457492,60.82566 0.407305,23.77305 1.022164,43.50574 1.366351,43.85042 0.344188,0.34468 7.296171,0.62669 15.448852,0.62669 14.552762,0 14.87519,-0.0605 17.682,-3.31845 1.741439,-2.02134 3.199421,-5.79401 3.729993,-9.65174 1.036206,-7.53412 3.683116,-9.14393 13.002114,-7.90772 5.789378,0.76798 5.954524,0.90977 7.304662,6.27166 1.190184,4.72664 3.668234,30.07801 3.752004,38.3843 0.0277,2.7485 0.21932,2.77925 17.32115,2.77925 h 17.29312 l 0.0738,-18.83715 c 0.12413,-31.70344 1.76234,-54.74174 4.15192,-58.38869 1.89569,-2.89319 2.7259,-3.14938 9.12051,-2.81449 l 7.03499,0.36844 0.82694,8.36439 c 1.25285,12.67266 3.41373,71.99952 4.72398,129.69692 l 1.17169,51.59569 11.34075,16.78456 c 17.25166,25.53283 36.29437,44.22059 56.97645,55.91449 3.90639,2.20871 7.10253,4.25298 7.10253,4.5428 0,0.62411 -14.08847,0.40188 -18.52834,-0.29227 z"
       id="path16226" />
    <path
       style="opacity:0.37;fill:#ffffff;stroke-width:1.23522"
       d="m 221.72256,452.50767 c -1.69843,-0.26553 -11.14789,-1.60198 -20.9988,-2.96989 C 122.3873,438.65993 67.898142,410.02871 38.004237,364.03711 30.273935,352.14409 26.594934,343.49498 24.606636,332.54016 22.888219,323.07227 21.144397,257.06765 19.990048,157.79976 l -0.484784,-41.68878 h 9.57372 9.573719 l 0.719465,17.60193 c 0.395705,9.68106 1.056806,37.05669 1.469113,60.83474 0.412307,23.77804 1.026027,43.51073 1.363824,43.85042 0.337796,0.33969 7.284551,0.61761 15.437232,0.61761 14.552762,0 14.87519,-0.0605 17.682,-3.31845 1.741439,-2.02134 3.199421,-5.79401 3.729993,-9.65174 1.035103,-7.52609 3.684104,-9.1438 12.958403,-7.91352 5.4579,0.72401 5.976437,1.10322 7.230011,5.28727 1.113316,3.71593 3.884536,32.16665 3.895386,39.9921 0.003,1.95563 1.65111,2.16164 17.29613,2.16164 h 17.29312 l 0.0738,-18.83715 c 0.12413,-31.70344 1.76234,-54.74174 4.15192,-58.38869 1.89569,-2.89319 2.7259,-3.14938 9.12051,-2.81449 l 7.03499,0.36844 0.82694,8.36439 c 1.23625,12.50476 3.39292,71.49944 4.7425,129.72903 l 1.19657,51.6278 11.36427,16.92709 c 14.89164,22.1811 34.40506,41.94271 51.99515,52.65645 6.60931,4.02558 12.01691,7.49965 12.01691,7.72015 0,0.52872 -14.57572,0.19963 -18.52834,-0.41833 z"
       id="path16228" />
    <path
       style="opacity:0.37;fill:#ffffff;stroke-width:1.23522"
       d="m 221.72256,452.50767 c -1.69843,-0.26553 -11.14789,-1.60198 -20.9988,-2.96989 C 123.35408,438.79418 69.509155,410.94926 39.481673,366.15437 30.624452,352.9412 26.699683,344.07212 24.606636,332.54016 22.888219,323.07227 21.144397,257.06765 19.990048,157.79976 l -0.484784,-41.68878 h 9.575592 9.575591 l 0.714673,16.3667 c 0.39307,9.00169 1.04902,36.37416 1.457666,60.82771 0.408645,24.45355 1.02368,44.74209 1.366743,45.08565 0.343064,0.34355 7.294127,0.62464 15.446808,0.62464 14.552762,0 14.87519,-0.0605 17.682,-3.31845 1.741439,-2.02134 3.199421,-5.79401 3.729993,-9.65174 1.035103,-7.52609 3.684104,-9.1438 12.958403,-7.91352 5.4579,0.72401 5.976437,1.10322 7.230011,5.28727 1.113316,3.71593 3.884536,32.16665 3.895386,39.9921 0.003,1.95563 1.65111,2.16164 17.29613,2.16164 h 17.29312 l 0.0738,-18.83715 c 0.12413,-31.70344 1.76234,-54.74174 4.15192,-58.38869 1.89569,-2.89319 2.7259,-3.14938 9.12051,-2.81449 l 7.03499,0.36844 0.82694,8.36439 c 1.23625,12.50476 3.39292,71.49944 4.7425,129.72903 l 1.19657,51.6278 11.36427,16.92709 c 14.89164,22.1811 34.40506,41.94271 51.99515,52.65645 6.60931,4.02558 12.01691,7.49965 12.01691,7.72015 0,0.52872 -14.57572,0.19963 -18.52834,-0.41833 z"
       id="path16230" />
    <path
       style="opacity:0.37;fill:#ffffff;stroke-width:1.23522"
       d="M 203.81182,450.18893 C 122.43164,438.4077 69.912181,411.55049 39.481673,366.15437 30.62247,352.93825 26.698719,344.06988 24.609291,332.54016 22.869931,322.94215 21.063042,254.91567 20.000726,159.03498 l -0.475579,-42.924 h 9.56565 9.56565 l 0.72057,16.3667 c 0.396313,9.00169 1.059751,36.37733 1.474307,60.83474 0.414556,24.45742 1.027025,44.74596 1.361042,45.08565 0.334016,0.33969 7.278966,0.61761 15.433221,0.61761 14.556627,0 14.877792,-0.0603 17.681807,-3.31845 1.737414,-2.01882 3.197022,-5.7988 3.726936,-9.65174 1.035949,-7.53225 3.683348,-9.1439 12.991916,-7.90908 5.677849,0.75319 5.968203,0.98756 7.298247,5.89094 1.248977,4.60454 3.728137,29.64416 3.777087,38.14877 l 0.0196,3.39686 h 17.29313 17.29312 l 0.0674,-19.45477 c 0.10845,-31.31493 1.75296,-54.10005 4.17102,-57.79047 1.88112,-2.87096 2.72342,-3.12945 9.1078,-2.79509 l 7.03499,0.36844 0.82694,8.36439 c 1.23625,12.50476 3.39292,71.49944 4.7425,129.72903 l 1.19657,51.6278 11.39567,16.92709 c 15.01007,22.2959 34.4794,42.03079 51.9479,52.65645 6.61802,4.02558 12.03276,7.49965 12.03276,7.72015 0,1.20121 -19.1937,-0.2405 -36.43908,-2.73707 z"
       id="path16232" />
    <path
       style="opacity:0.37;fill:#ffffff;stroke-width:1.23522"
       d="m 355.14752,343.08323 c 0.0449,-59.18224 2.50562,-210.44154 3.63235,-223.2813 1.80091,-20.522257 2.66621,-22.795284 12.28327,-32.266299 18.84132,-18.555186 49.42272,-27.359295 101.10091,-29.106035 l 22.54283,-0.761955 -0.0382,87.585959 c -0.038,87.27433 -0.55526,100.32308 -4.4512,112.29043 -2.83313,8.70262 -13.06413,30.23541 -19.93828,41.96335 -12.28068,20.95195 -42.30505,45.36799 -71.00351,57.74056 -10.5631,4.554 -38.46253,13.31901 -42.39503,13.31901 -1.46332,0 -1.75059,-4.55537 -1.73319,-27.48372 z"
       id="path16234" />
    <path
       style="opacity:0.37;fill:#ffffff;stroke-width:1.23522"
       d="m 355.14752,343.08323 c 0.0449,-59.18224 2.50562,-210.44154 3.63235,-223.2813 1.80091,-20.522257 2.66621,-22.795284 12.28327,-32.266299 18.84132,-18.555186 49.42272,-27.359295 101.10091,-29.106035 l 22.54283,-0.761955 -0.0382,87.585959 c -0.038,87.27433 -0.55526,100.32308 -4.4512,112.29043 -2.83313,8.70262 -13.06413,30.23541 -19.93828,41.96335 -12.28068,20.95195 -42.30505,45.36799 -71.00351,57.74056 -10.5631,4.554 -38.46253,13.31901 -42.39503,13.31901 -1.46332,0 -1.75059,-4.55537 -1.73319,-27.48372 z"
       id="path16236" />
    <path
       style="opacity:0.37;fill:#ffffff;stroke-width:1.23522"
       d="m 355.14609,342.46562 c 0.0408,-59.00757 2.5034,-209.7823 3.63745,-222.70541 1.79692,-20.476877 2.66564,-22.756613 12.2796,-32.224579 18.84132,-18.555186 49.42272,-27.359295 101.10091,-29.106035 l 22.54283,-0.761955 -0.0382,87.585959 c -0.038,87.27433 -0.55526,100.32308 -4.4512,112.29043 -2.80575,8.61851 -13.0171,30.14466 -19.90614,41.96335 -12.3261,21.14637 -44.788,47.18326 -73.46852,58.92727 -9.1441,3.74431 -36.77305,12.1323 -39.96216,12.1323 -1.46442,0 -1.75084,-4.64012 -1.73462,-28.10133 z"
       id="path16238" />
    <path
       style="opacity:0.37;fill:#ffffff;stroke-width:1.23522"
       d="m 355.15076,341.84801 c 0.0525,-62.50874 2.49399,-208.68873 3.72588,-223.07626 0.71815,-8.38748 2.16937,-17.40843 3.22494,-20.046548 2.89449,-7.234033 15.87293,-18.643619 27.88023,-24.51001 20.41603,-9.974639 43.93914,-14.492966 82.18224,-15.785596 l 22.54283,-0.761955 -0.0382,87.585959 c -0.038,87.27433 -0.55526,100.32308 -4.4512,112.29043 -2.80575,8.61851 -13.0171,30.14466 -19.90614,41.96335 -12.3261,21.14637 -44.788,47.18326 -73.46852,58.92727 -9.1441,3.74431 -36.77305,12.1323 -39.96216,12.1323 -1.46565,0 -1.75009,-4.72201 -1.72995,-28.71894 z"
       id="path16240" />
    <path
       style="opacity:0.37;fill:#ffffff;stroke-width:1.23522"
       d="m 355.15076,341.84801 c 0.0525,-62.50874 2.49399,-208.68873 3.72588,-223.07626 0.71815,-8.38748 2.16937,-17.40843 3.22494,-20.046548 2.89449,-7.234033 15.87293,-18.643619 27.88023,-24.51001 20.41603,-9.974639 43.93914,-14.492966 82.18224,-15.785596 l 22.54283,-0.761955 -0.0382,87.585959 c -0.038,87.27433 -0.55526,100.32308 -4.4512,112.29043 -2.80575,8.61851 -13.0171,30.14466 -19.90614,41.96335 -12.3261,21.14637 -44.788,47.18326 -73.46852,58.92727 -9.1441,3.74431 -36.77305,12.1323 -39.96216,12.1323 -1.46565,0 -1.75009,-4.72201 -1.72995,-28.71894 z"
       id="path16242" />
    <path
       style="opacity:0.37;fill:#ffffff;stroke-width:1.23522"
       d="m 355.15076,341.84801 c 0.0525,-62.50874 2.49399,-208.68873 3.72588,-223.07626 0.71815,-8.38748 2.16937,-17.40843 3.22494,-20.046548 2.89449,-7.234033 15.87293,-18.643619 27.88023,-24.51001 20.41603,-9.974639 43.93914,-14.492966 82.18224,-15.785596 l 22.54283,-0.761955 -0.0382,87.585959 c -0.038,87.27433 -0.55526,100.32308 -4.4512,112.29043 -2.80575,8.61851 -13.0171,30.14466 -19.90614,41.96335 -12.3261,21.14637 -44.788,47.18326 -73.46852,58.92727 -9.1441,3.74431 -36.77305,12.1323 -39.96216,12.1323 -1.46565,0 -1.75009,-4.72201 -1.72995,-28.71894 z"
       id="path16244" />
    <path
       style="opacity:0.37;fill:#ffffff;stroke-width:1.23522"
       d="m 274.64141,449.2302 c -9.81529,-2.79759 -44.74074,-25.07646 -53.08098,-33.86024 -18.77765,-19.77627 -18.45725,-19.33457 -17.49918,-24.12493 0.65996,-3.29984 0.47226,-3.58447 -1.87296,-2.84012 -2.77281,0.88005 -7.64064,-1.06866 -7.64064,-3.05874 0,-0.65547 1.27845,-1.19177 2.84101,-1.19177 1.56256,0 3.39337,-0.55236 4.06848,-1.22746 0.81314,-0.81314 6.08302,-0.01 15.61231,2.37997 42.10057,10.55801 102.12879,10.80542 150.51007,0.62034 49.67922,-10.45832 94.37247,-36.83949 119.13319,-70.32096 3.7709,-5.09902 7.19285,-9.27095 7.60433,-9.27095 1.87686,0 -1.07613,18.29227 -4.62613,28.65661 -8.31565,24.27772 -18.13509,40.13775 -34.66775,55.99416 -23.18109,22.23292 -59.26547,40.98539 -97.52715,50.68331 -27.80324,7.0471 -70.86888,10.97698 -82.8546,7.56078 z"
       id="path16246" />
    <path
       style="opacity:0.37;fill:#ffffff;stroke-width:1.23522"
       d="m 274.64141,449.2302 c -9.81529,-2.79759 -44.74074,-25.07646 -53.08098,-33.86024 -18.77765,-19.77627 -18.45725,-19.33457 -17.49918,-24.12493 0.65996,-3.29984 0.47226,-3.58447 -1.87296,-2.84012 -2.77281,0.88005 -7.64064,-1.06866 -7.64064,-3.05874 0,-0.65547 1.27845,-1.19177 2.84101,-1.19177 1.56256,0 3.39337,-0.55236 4.06848,-1.22746 0.81314,-0.81314 6.08302,-0.01 15.61231,2.37997 42.10057,10.55801 102.12879,10.80542 150.51007,0.62034 49.80444,-10.48468 94.18544,-36.75332 119.34079,-70.63654 3.65672,-4.92545 6.98525,-8.95537 7.39673,-8.95537 1.87686,0 -1.07613,18.29227 -4.62613,28.65661 -8.31565,24.27772 -18.13509,40.13775 -34.66775,55.99416 -23.18109,22.23292 -59.26547,40.98539 -97.52715,50.68331 -27.80324,7.0471 -70.86888,10.97698 -82.8546,7.56078 z"
       id="path16248" />
    <path
       style="opacity:0.37;fill:#ffffff;stroke-width:1.23522"
       d="m 274.64141,449.2302 c -9.81529,-2.79759 -44.74074,-25.07646 -53.08098,-33.86024 -18.77765,-19.77627 -18.45725,-19.33457 -17.49918,-24.12493 0.65996,-3.29984 0.47226,-3.58447 -1.87296,-2.84012 -2.77281,0.88005 -7.64064,-1.06866 -7.64064,-3.05874 0,-0.65547 1.27845,-1.19177 2.84101,-1.19177 1.56256,0 3.39337,-0.55236 4.06848,-1.22746 0.81314,-0.81314 6.08302,-0.01 15.61231,2.37997 23.39859,5.86791 42.4038,7.89011 73.8256,7.85521 71.3358,-0.0792 121.65708,-14.35443 164.9023,-46.77971 10.71298,-8.03259 24.70524,-22.12161 32.1049,-32.32692 3.07876,-4.24608 5.9499,-7.72015 6.38034,-7.72015 1.90602,0 -1.01028,18.20061 -4.59168,28.65661 -8.31565,24.27772 -18.13509,40.13775 -34.66775,55.99416 -23.18109,22.23292 -59.26547,40.98539 -97.52715,50.68331 -27.80324,7.0471 -70.86888,10.97698 -82.8546,7.56078 z"
       id="path16250" />
    <path
       style="opacity:0.37;fill:#ffffff;stroke-width:1.23522"
       d="m 84.84992,186.45369 c -2.451412,-0.98337 -2.797606,-1.88116 -2.470446,-6.40662 0.367186,-5.07914 0.558396,-5.30033 5.473562,-6.33187 7.564761,-1.58762 12.082723,0.90667 12.583544,6.94713 0.3334,4.0213 -0.0401,4.78656 -2.859668,5.85854 -3.937421,1.49701 -8.892908,1.47085 -12.726992,-0.0672 z"
       id="path16252" />
    <path
       style="opacity:0.37;fill:#ffffff;stroke-width:1.23522"
       d="m 84.84992,186.45369 c -2.451412,-0.98337 -2.797606,-1.88116 -2.470446,-6.40662 0.367186,-5.07914 0.558396,-5.30033 5.473562,-6.33187 7.564761,-1.58762 12.082723,0.90667 12.583544,6.94713 0.3334,4.0213 -0.0401,4.78656 -2.859668,5.85854 -3.937421,1.49701 -8.892908,1.47085 -12.726992,-0.0672 z"
       id="path16254" />
    <path
       style="opacity:0.37;fill:#ffffff;stroke-width:1.23522"
       d="m 114.56899,153.53142 c -2.86188,-0.55135 -4.59602,-4.47136 -3.80199,-8.5944 0.70077,-3.63883 6.69332,-5.81314 12.60312,-4.57285 4.91329,1.03115 5.1065,1.25433 5.47309,6.32209 0.33944,4.69257 0.0343,5.38465 -2.85967,6.48492 -3.27009,1.24328 -6.32976,1.33985 -11.41455,0.36024 z"
       id="path16256" />
    <path
       style="opacity:0.37;fill:#ffffff;stroke-width:1.23522"
       d="m 114.56899,153.53142 c -2.86188,-0.55135 -4.59602,-4.47136 -3.80199,-8.5944 0.70077,-3.63883 6.69332,-5.81314 12.60312,-4.57285 4.91329,1.03115 5.1065,1.25433 5.47309,6.32209 0.33944,4.69257 0.0343,5.38465 -2.85967,6.48492 -3.27009,1.24328 -6.32976,1.33985 -11.41455,0.36024 z"
       id="path16258" />
    <path
       style="opacity:0.37;fill:#ffffff;stroke-width:1.23522"
       d="m 143.59469,126.40954 c -2.94786,-0.50409 -3.39686,-1.15222 -3.39686,-4.90331 0,-2.37734 0.56239,-5.37328 1.24976,-6.65763 2.18687,-4.08621 16.35441,-6.57905 19.50199,-3.43147 2.04739,2.04739 1.87653,11.47548 -0.23979,13.23187 -1.94039,1.61038 -11.96374,2.64143 -17.1151,1.76054 z"
       id="path16260" />
    <path
       style="opacity:0.37;fill:#ffffff;stroke-width:1.23522"
       d="m 143.59469,126.40954 c -2.94786,-0.50409 -3.39686,-1.15222 -3.39686,-4.90331 0,-2.37734 0.56239,-5.37328 1.24976,-6.65763 2.18687,-4.08621 16.35441,-6.57905 19.50199,-3.43147 2.04739,2.04739 1.87653,11.47548 -0.23979,13.23187 -1.94039,1.61038 -11.96374,2.64143 -17.1151,1.76054 z"
       id="path16262" />
    <path
       style="opacity:0.37;fill:#ffffff;stroke-width:1.23522"
       d="m 143.59469,126.40954 c -2.94786,-0.50409 -3.39686,-1.15222 -3.39686,-4.90331 0,-2.37734 0.56239,-5.37328 1.24976,-6.65763 2.18687,-4.08621 16.35441,-6.57905 19.50199,-3.43147 2.04739,2.04739 1.87653,11.47548 -0.23979,13.23187 -1.94039,1.61038 -11.96374,2.64143 -17.1151,1.76054 z"
       id="path16264" />
    <path
       style="opacity:0.37;fill:#ffffff;stroke-width:1.23522"
       d="m 84.921592,113.60204 c -2.228412,-0.89571 -2.779252,-2.08984 -2.779252,-6.02492 0,-5.86237 0.893977,-6.5505 8.662197,-6.66769 7.267489,-0.10964 9.866153,1.82745 9.866153,7.35442 0,3.37465 -0.62422,4.43993 -3.168473,5.40725 -3.84632,1.46237 -8.838811,1.43496 -12.580625,-0.0691 z"
       id="path16266" />
    <path
       style="opacity:0.37;fill:#ffffff;stroke-width:1.23522"
       d="m 84.921592,113.60204 c -2.228412,-0.89571 -2.779252,-2.08984 -2.779252,-6.02492 0,-5.86237 0.893977,-6.5505 8.662197,-6.66769 7.267489,-0.10964 9.866153,1.82745 9.866153,7.35442 0,3.37465 -0.62422,4.43993 -3.168473,5.40725 -3.84632,1.46237 -8.838811,1.43496 -12.580625,-0.0691 z"
       id="path16268" />
    <path
       style="opacity:0.37;fill:#ffffff;stroke-width:1.23522"
       d="m 84.921592,113.60204 c -2.228412,-0.89571 -2.779252,-2.08984 -2.779252,-6.02492 0,-5.86237 0.893977,-6.5505 8.662197,-6.66769 7.267489,-0.10964 9.866153,1.82745 9.866153,7.35442 0,3.37465 -0.62422,4.43993 -3.168473,5.40725 -3.84632,1.46237 -8.838811,1.43496 -12.580625,-0.0691 z"
       id="path16270" />
    <path
       style="opacity:0.37;fill:#ffffff;stroke-width:1.23522"
       d="m 116.11098,93.020422 c -1.35875,-0.354489 -3.16526,-1.208623 -4.01448,-1.898075 -1.96983,-1.599248 -2.01479,-11.103211 -0.0618,-13.056243 2.17065,-2.170647 13.92646,-1.89999 15.80532,0.36389 1.69054,2.036984 1.97353,11.522607 0.38939,13.052395 -1.38524,1.337713 -9.12241,2.319687 -12.11847,1.538033 z"
       id="path16272" />
    <path
       style="opacity:0.37;fill:#ffffff;stroke-width:1.23522"
       d="m 116.11098,93.020422 c -1.35875,-0.354489 -3.16526,-1.208623 -4.01448,-1.898075 -1.96983,-1.599248 -2.01479,-11.103211 -0.0618,-13.056243 2.17065,-2.170647 13.92646,-1.89999 15.80532,0.36389 1.69054,2.036984 1.97353,11.522607 0.38939,13.052395 -1.38524,1.337713 -9.12241,2.319687 -12.11847,1.538033 z"
       id="path16274" />
    <path
       style="opacity:0.37;fill:#ffffff;stroke-width:1.23522"
       d="m 116.11098,93.020422 c -1.35875,-0.354489 -3.16526,-1.208623 -4.01448,-1.898075 -1.96983,-1.599248 -2.01479,-11.103211 -0.0618,-13.056243 2.17065,-2.170647 13.92646,-1.89999 15.80532,0.36389 1.69054,2.036984 1.97353,11.522607 0.38939,13.052395 -1.38524,1.337713 -9.12241,2.319687 -12.11847,1.538033 z"
       id="path16276" />
    <path
       style="opacity:0.37;fill:#ffffff;stroke-width:1.23522"
       d="m 116.11098,93.020422 c -1.35875,-0.354489 -3.16526,-1.208623 -4.01448,-1.898075 -1.96983,-1.599248 -2.01479,-11.103211 -0.0618,-13.056243 2.17065,-2.170647 13.92646,-1.89999 15.80532,0.36389 1.69054,2.036984 1.97353,11.522607 0.38939,13.052395 -1.38524,1.337713 -9.12241,2.319687 -12.11847,1.538033 z"
       id="path16278" />
    <path
       style="opacity:0.37;fill:#ffffff;stroke-width:1.23522"
       d="m 114.25814,92.345143 c -2.44209,-1.276396 -3.16844,-2.725208 -3.47234,-6.926117 -0.21136,-2.921654 0.27359,-6.104794 1.07766,-7.073645 2.02592,-2.441085 13.93279,-2.378026 15.9766,0.08461 1.69093,2.037448 1.97265,11.50435 0.38939,13.085289 -1.9487,1.945854 -10.82713,2.473209 -13.97131,0.82986 z"
       id="path16280" />
    <path
       style="opacity:0.37;fill:#ffffff;stroke-width:1.23522"
       d="M 22.542823,67.838334 C 20.027046,66.373028 19.583878,59.346882 21.86345,57.06731 c 1.923273,-1.923273 13.640538,-1.923273 15.563812,0 2.41376,2.41376 1.831785,9.360765 -0.906974,10.826504 -3.0333,1.623373 -11.150365,1.591155 -13.977465,-0.05548 z"
       id="path16282" />
    <path
       style="opacity:0.37;fill:#ffffff;stroke-width:1.23522"
       d="M 22.542823,67.838334 C 20.027046,66.373028 19.583878,59.346882 21.86345,57.06731 c 1.923273,-1.923273 13.640538,-1.923273 15.563812,0 2.41376,2.41376 1.831785,9.360765 -0.906974,10.826504 -3.0333,1.623373 -11.150365,1.591155 -13.977465,-0.05548 z"
       id="path16284" />
    <path
       style="opacity:0.37;fill:#ffffff;stroke-width:1.23522"
       d="m 274.83715,449.279 c -3.05717,-0.87522 -8.8936,-3.48028 -12.96984,-5.78903 -16.09031,-9.11347 -42.46143,-28.08814 -43.7262,-31.46208 -0.27137,-0.7239 -2.97745,-3.81748 -6.01351,-6.87462 -7.87108,-7.9257 -8.90598,-9.71011 -8.06635,-13.90824 0.65996,-3.29984 0.47226,-3.58447 -1.87296,-2.84012 -2.77281,0.88005 -7.64064,-1.06866 -7.64064,-3.05874 0,-0.65547 1.27845,-1.19177 2.84101,-1.19177 1.56256,0 3.39709,-0.55607 4.07674,-1.23572 0.82415,-0.82416 6.15186,-0.0166 15.99614,2.42476 23.90162,5.92746 42.04702,7.86023 73.43351,7.82183 51.3229,-0.0628 92.05335,-7.58367 125.37515,-23.15046 29.59212,-13.82442 54.5671,-33.17641 70.62495,-54.7241 3.67055,-4.92545 7.01041,-8.95537 7.42189,-8.95537 1.87686,0 -1.07613,18.29227 -4.62613,28.65661 -8.31565,24.27772 -18.13509,40.13775 -34.66775,55.99416 -23.18109,22.23292 -59.26547,40.98539 -97.52715,50.68331 -27.57895,6.99024 -70.89348,10.97777 -82.65886,7.60958 z"
       id="path16286" />
    <path
       style="opacity:0.37;fill:#ffffff;stroke-width:1.23522"
       d="m 274.83715,449.279 c -3.05717,-0.87522 -8.8936,-3.48028 -12.96984,-5.78903 -16.09031,-9.11347 -42.46143,-28.08814 -43.7262,-31.46208 -0.27137,-0.7239 -2.97745,-3.81748 -6.01351,-6.87462 -7.87108,-7.9257 -8.90598,-9.71011 -8.06635,-13.90824 0.65996,-3.29984 0.47226,-3.58447 -1.87296,-2.84012 -2.77281,0.88005 -7.64064,-1.06866 -7.64064,-3.05874 0,-0.65547 1.27845,-1.19177 2.84101,-1.19177 1.56256,0 3.39709,-0.55607 4.07674,-1.23572 0.82415,-0.82416 6.15186,-0.0166 15.99614,2.42476 23.30031,5.77834 42.11949,7.82861 72.19829,7.86571 58.54077,0.0722 103.01903,-9.47918 140.1115,-30.08788 23.84084,-13.24606 43.81295,-29.96897 57.12382,-47.83056 3.67055,-4.92545 7.01041,-8.95537 7.42189,-8.95537 1.87686,0 -1.07613,18.29227 -4.62613,28.65661 -8.31565,24.27772 -18.13509,40.13775 -34.66775,55.99416 -23.28909,22.3365 -60.36743,41.52597 -98.66128,51.06103 -26.70351,6.64909 -70.11026,10.49961 -81.52473,7.23186 z"
       id="path16288" />
    <path
       style="opacity:0.37;fill:#ffffff;stroke-width:1.23522"
       d="m 275.75853,449.60476 c -2.55041,-0.65023 -7.27514,-2.5211 -10.49939,-4.15747 -13.17222,-6.68518 -45.76104,-29.79945 -47.11803,-33.4194 -0.27137,-0.7239 -2.97745,-3.81748 -6.01351,-6.87462 -7.87108,-7.9257 -8.90598,-9.71011 -8.06635,-13.90824 0.65996,-3.29984 0.47226,-3.58447 -1.87296,-2.84012 -2.77281,0.88005 -7.64064,-1.06866 -7.64064,-3.05874 0,-0.65547 1.27845,-1.19177 2.84101,-1.19177 1.56256,0 3.39415,-0.55313 4.0702,-1.22918 0.81543,-0.81543 6.3198,0.0139 16.35243,2.46378 23.84447,5.8226 41.85735,7.78316 71.84854,7.82015 57.04662,0.0703 101.0472,-9.06184 137.10977,-28.45671 26.12482,-14.05024 47.13546,-31.48791 61.15575,-50.75592 3.06605,-4.21365 5.9268,-7.66118 6.35724,-7.66118 1.90602,0 -1.01028,18.20061 -4.59168,28.65661 -8.36476,24.42111 -18.12048,40.12229 -34.97703,56.29326 -23.03376,22.09694 -60.13571,41.24619 -98.352,50.76193 -24.97746,6.21931 -69.48438,10.39242 -80.60335,7.55762 z"
       id="path16290" />
    <path
       style="opacity:0.37;fill:#ffffff;stroke-width:1.23522"
       d="m 275.75853,449.60476 c -2.55041,-0.65023 -7.27514,-2.5211 -10.49939,-4.15747 -13.17222,-6.68518 -45.76104,-29.79945 -47.11803,-33.4194 -0.27137,-0.7239 -2.98472,-3.81752 -6.02968,-6.87469 -7.76545,-7.79663 -9.18101,-10.25351 -8.18777,-14.2109 0.75185,-2.9956 0.56418,-3.26724 -1.74982,-2.53281 -2.76116,0.87636 -7.62619,-1.07785 -7.62619,-3.06332 0,-0.65547 1.27845,-1.19177 2.84101,-1.19177 1.56256,0 3.39415,-0.55313 4.0702,-1.22918 0.81543,-0.81543 6.3198,0.0139 16.35243,2.46378 23.65723,5.77688 41.82695,7.75115 71.84854,7.80684 28.72349,0.0533 45.82156,-1.3992 71.2998,-6.05695 52.92934,-9.67617 100.48953,-37.07662 126.85413,-73.0834 3.10903,-4.24608 6.01248,-7.72015 6.4521,-7.72015 1.9202,0 -0.97844,18.1565 -4.57495,28.65661 -8.36476,24.42111 -18.12048,40.12229 -34.97703,56.29326 -23.03376,22.09694 -60.13571,41.24619 -98.352,50.76193 -24.97746,6.21931 -69.48438,10.39242 -80.60335,7.55762 z"
       id="path16292" />
    <path
       style="opacity:0.37;fill:#ffffff;stroke-width:1.23522"
       d="m 275.75853,449.60476 c -6.61945,-1.68764 -14.49481,-5.90074 -29.33151,-15.69158 -14.19637,-9.36827 -27.15064,-19.44065 -28.92511,-22.49024 -0.62292,-1.07056 -3.3395,-4.16986 -6.03684,-6.88736 -7.09995,-7.15298 -8.51683,-9.70688 -7.54141,-13.59328 0.75185,-2.9956 0.56418,-3.26724 -1.74982,-2.53281 -2.76116,0.87636 -7.62619,-1.07785 -7.62619,-3.06332 0,-0.65547 1.27845,-1.19177 2.84101,-1.19177 1.56256,0 3.38051,-0.53949 4.03988,-1.19887 0.77501,-0.77501 6.64879,0.0981 16.61376,2.46948 24.97502,5.9434 41.80064,7.74182 72.23514,7.72089 37.58921,-0.0258 66.67553,-3.59362 94.49457,-11.59087 42.28589,-12.15608 81.36179,-37.74819 103.06324,-67.49954 3.09722,-4.24608 5.99099,-7.72015 6.43061,-7.72015 1.85824,0 -0.91788,17.91545 -4.37514,28.23471 -8.02191,23.94382 -18.31484,40.53897 -35.17684,56.71516 -23.03376,22.09694 -60.13571,41.24619 -98.352,50.76193 -24.97746,6.21931 -69.48438,10.39242 -80.60335,7.55762 z"
       id="path16294" />
    <path
       style="opacity:0.37;fill:#ffffff;stroke-width:1.23522"
       d="m 275.75853,449.60476 c -6.61945,-1.68764 -14.49481,-5.90074 -29.33151,-15.69158 -14.19637,-9.36827 -27.15064,-19.44065 -28.92511,-22.49024 -0.62292,-1.07056 -3.3395,-4.16986 -6.03684,-6.88736 -7.09995,-7.15298 -8.51683,-9.70688 -7.54141,-13.59328 0.75185,-2.9956 0.56418,-3.26724 -1.74982,-2.53281 -2.76116,0.87636 -7.62619,-1.07785 -7.62619,-3.06332 0,-0.65547 1.27845,-1.19177 2.84101,-1.19177 1.56256,0 3.39025,-0.54924 4.06155,-1.22053 0.80389,-0.8039 5.59054,-0.16239 14.0224,1.87928 20.04179,4.85287 32.21272,6.66182 54.12373,8.04434 43.34926,2.73521 95.47704,-3.59475 129.02513,-15.66772 36.5401,-13.1497 69.94658,-36.79382 89.20161,-63.13428 3.1039,-4.24608 6.00316,-7.72015 6.44278,-7.72015 1.85824,0 -0.91788,17.91545 -4.37514,28.23471 -8.02191,23.94382 -18.31484,40.53897 -35.17684,56.71516 -23.03376,22.09694 -60.13571,41.24619 -98.352,50.76193 -24.97746,6.21931 -69.48438,10.39242 -80.60335,7.55762 z"
       id="path16296" />
    <path
       style="opacity:0.37;fill:#ffffff;stroke-width:1.23522"
       d="m 275.75853,449.60476 c -6.65602,-1.69696 -14.54917,-5.9308 -29.33151,-15.73324 -17.66215,-11.7121 -26.56138,-18.85415 -30.82258,-24.73656 -1.97402,-2.72506 -4.64556,-5.70849 -5.93676,-6.62985 -4.20148,-2.99805 -6.65436,-7.93574 -5.74402,-11.56281 0.75185,-2.9956 0.56418,-3.26724 -1.74982,-2.53281 -2.76116,0.87636 -7.62619,-1.07785 -7.62619,-3.06332 0,-0.65547 1.27845,-1.19177 2.84101,-1.19177 1.56256,0 3.39025,-0.54924 4.06155,-1.22053 0.80389,-0.8039 5.59054,-0.16239 14.0224,1.87928 20.05882,4.85699 32.21588,6.66202 54.22082,8.05046 46.2418,2.91772 100.41406,-4.32344 135.25793,-18.07983 32.75848,-12.93307 63.06243,-34.85975 81.31301,-58.83472 4.02508,-5.28754 7.65186,-9.61372 8.05956,-9.61372 1.80915,0 -1.02838,18.07196 -4.43321,28.23471 -8.02191,23.94382 -18.31484,40.53897 -35.17684,56.71516 -23.03376,22.09694 -60.13571,41.24619 -98.352,50.76193 -24.97746,6.21931 -69.48438,10.39242 -80.60335,7.55762 z"
       id="path16298" />
    <path
       style="opacity:0.37;fill:#ffffff;stroke-width:1.23522"
       d="m 275.75853,449.60476 c -6.65602,-1.69696 -14.54917,-5.9308 -29.33151,-15.73324 -17.66215,-11.7121 -26.56138,-18.85415 -30.82258,-24.73656 -1.97402,-2.72506 -4.64556,-5.70849 -5.93676,-6.62985 -4.20148,-2.99805 -6.65436,-7.93574 -5.74402,-11.56281 0.75185,-2.9956 0.56418,-3.26724 -1.74982,-2.53281 -2.76116,0.87636 -7.62619,-1.07785 -7.62619,-3.06332 0,-0.65547 1.27845,-1.19177 2.84101,-1.19177 1.56256,0 3.38051,-0.53949 4.03988,-1.19887 0.77501,-0.77501 6.64879,0.0981 16.61376,2.46948 58.66639,13.96108 136.94617,9.30173 188.17798,-11.20068 32.36181,-12.95084 61.87558,-34.447 80.06664,-58.31601 4.01267,-5.26514 7.62931,-9.57298 8.03701,-9.57298 1.80915,0 -1.02838,18.07196 -4.43321,28.23471 -8.02191,23.94382 -18.31484,40.53897 -35.17684,56.71516 -23.03376,22.09694 -60.13571,41.24619 -98.352,50.76193 -24.97746,6.21931 -69.48438,10.39242 -80.60335,7.55762 z"
       id="path16300" />
    <path
       style="opacity:0.37;fill:#ffffff;stroke-width:1.23522"
       d="m 275.75853,449.60476 c -6.65602,-1.69696 -14.54917,-5.9308 -29.33151,-15.73324 -17.80261,-11.80524 -26.56624,-18.86086 -30.95947,-24.92554 -2.04932,-2.82899 -4.52622,-5.45069 -5.50424,-5.82599 -3.29077,-1.26279 -6.9286,-8.63583 -6.02912,-12.21963 0.74053,-2.95052 0.54767,-3.22341 -1.76035,-2.49087 -2.76116,0.87636 -7.62619,-1.07785 -7.62619,-3.06332 0,-0.65547 1.27845,-1.19177 2.84101,-1.19177 1.56256,0 3.38051,-0.53949 4.03988,-1.19887 0.77501,-0.77501 6.64879,0.0931 16.61376,2.45531 24.55808,5.82163 41.80048,7.6601 71.61753,7.6362 36.81063,-0.0295 64.73968,-3.28281 92.64174,-10.79136 41.58111,-11.18963 81.22704,-36.48553 103.98535,-66.34736 4.01267,-5.26514 7.62931,-9.57298 8.03701,-9.57298 1.80915,0 -1.02838,18.07196 -4.43321,28.23471 -8.02191,23.94382 -18.31484,40.53897 -35.17684,56.71516 -23.02674,22.09021 -61.94997,42.13179 -99.04109,50.99629 -25.56057,6.10877 -69.04717,10.09385 -79.91426,7.32326 z"
       id="path16302" />
    <path
       style="opacity:0.37;fill:#ffffff;stroke-width:1.23522"
       d="m 275.75853,449.60476 c -6.65602,-1.69696 -14.54917,-5.9308 -29.33151,-15.73324 -17.80261,-11.80524 -26.56624,-18.86086 -30.95947,-24.92554 -2.04932,-2.82899 -4.52622,-5.45069 -5.50424,-5.82599 -3.29077,-1.26279 -6.9286,-8.63583 -6.02912,-12.21963 0.74053,-2.95052 0.54767,-3.22341 -1.76035,-2.49087 -2.76116,0.87636 -7.62619,-1.07785 -7.62619,-3.06332 0,-0.65547 1.27845,-1.19177 2.84101,-1.19177 1.56256,0 3.39025,-0.54924 4.06155,-1.22053 0.80389,-0.8039 5.63181,-0.14433 14.1433,1.93218 42.93974,10.47583 101.15455,11.12659 148.38311,1.65871 51.41629,-10.30739 95.79244,-35.93198 122.2921,-70.61644 4.02268,-5.26514 7.64751,-9.57298 8.05521,-9.57298 1.80915,0 -1.02838,18.07196 -4.43321,28.23471 -8.02191,23.94382 -18.31484,40.53897 -35.17684,56.71516 -23.02674,22.09021 -61.94997,42.13179 -99.04109,50.99629 -25.56057,6.10877 -69.04717,10.09385 -79.91426,7.32326 z"
       id="path16304" />
    <path
       style="opacity:0.37;fill:#ffffff;stroke-width:1.23522"
       d="m 114.25814,92.345143 c -2.44209,-1.276396 -3.16844,-2.725208 -3.47234,-6.926117 -0.21136,-2.921654 0.27359,-6.104794 1.07766,-7.073645 2.02592,-2.441085 13.93279,-2.378026 15.9766,0.08461 1.69093,2.037448 1.97265,11.50435 0.38939,13.085289 -1.9487,1.945854 -10.82713,2.473209 -13.97131,0.82986 z"
       id="path16306" />
    <path
       style="opacity:0.37;fill:#ffffff;stroke-width:1.23522"
       d="m 114.25814,92.345143 c -2.44209,-1.276396 -3.16844,-2.725208 -3.47234,-6.926117 -0.21136,-2.921654 0.27359,-6.104794 1.07766,-7.073645 2.02592,-2.441085 13.93279,-2.378026 15.9766,0.08461 1.69093,2.037448 1.97265,11.50435 0.38939,13.085289 -1.9487,1.945854 -10.82713,2.473209 -13.97131,0.82986 z"
       id="path16308" />
    <path
       style="opacity:0.37;fill:#ffffff;stroke-width:1.23522"
       d="m 114.25814,92.345143 c -2.44209,-1.276396 -3.16844,-2.725208 -3.47234,-6.926117 -0.21136,-2.921654 0.27359,-6.104794 1.07766,-7.073645 2.02592,-2.441085 13.93279,-2.378026 15.9766,0.08461 1.69093,2.037448 1.97265,11.50435 0.38939,13.085289 -1.9487,1.945854 -10.82713,2.473209 -13.97131,0.82986 z"
       id="path16310" />
    <path
       style="opacity:0.37;fill:#ffffff;stroke-width:1.23522"
       d="m 114.25814,92.345143 c -2.44209,-1.276396 -3.16844,-2.725208 -3.47234,-6.926117 -0.21136,-2.921654 0.27359,-6.104794 1.07766,-7.073645 2.02592,-2.441085 13.93279,-2.378026 15.9766,0.08461 1.69093,2.037448 1.97265,11.50435 0.38939,13.085289 -1.9487,1.945854 -10.82713,2.473209 -13.97131,0.82986 z"
       id="path16312" />
    <path
       style="opacity:0.37;fill:#ffffff;stroke-width:1.23522"
       d="m 114.25814,92.345143 c -2.44209,-1.276396 -3.16844,-2.725208 -3.47234,-6.926117 -0.21136,-2.921654 0.27359,-6.104794 1.07766,-7.073645 2.02592,-2.441085 13.93279,-2.378026 15.9766,0.08461 1.69093,2.037448 1.97265,11.50435 0.38939,13.085289 -1.9487,1.945854 -10.82713,2.473209 -13.97131,0.82986 z"
       id="path16314" />
    <path
       style="opacity:0.37;fill:#ffffff;stroke-width:1.23522"
       d="m 114.25814,92.345143 c -2.44209,-1.276396 -3.16844,-2.725208 -3.47234,-6.926117 -0.21136,-2.921654 0.27359,-6.104794 1.07766,-7.073645 2.02592,-2.441085 13.93279,-2.378026 15.9766,0.08461 1.69093,2.037448 1.97265,11.50435 0.38939,13.085289 -1.9487,1.945854 -10.82713,2.473209 -13.97131,0.82986 z"
       id="path16316" />
    <path
       style="opacity:0.37;fill:#ffffff;stroke-width:1.23522"
       d="m 114.25814,92.345143 c -2.44209,-1.276396 -3.16844,-2.725208 -3.47234,-6.926117 -0.21136,-2.921654 0.27359,-6.104794 1.07766,-7.073645 2.02592,-2.441085 13.93279,-2.378026 15.9766,0.08461 1.69093,2.037448 1.97265,11.50435 0.38939,13.085289 -1.9487,1.945854 -10.82713,2.473209 -13.97131,0.82986 z"
       id="path16318" />
    <path
       style="opacity:0.37;fill:#ffffff;stroke-width:1.23522"
       d="m 84.921592,113.60204 c -2.228412,-0.89571 -2.779252,-2.08984 -2.779252,-6.02492 0,-5.86237 0.893977,-6.5505 8.662197,-6.66769 7.267489,-0.10964 9.866153,1.82745 9.866153,7.35442 0,3.37465 -0.62422,4.43993 -3.168473,5.40725 -3.84632,1.46237 -8.838811,1.43496 -12.580625,-0.0691 z"
       id="path16320" />
    <path
       style="opacity:0.37;fill:#ffffff;stroke-width:1.23522"
       d="m 84.921592,113.60204 c -2.228412,-0.89571 -2.779252,-2.08984 -2.779252,-6.02492 0,-5.86237 0.893977,-6.5505 8.662197,-6.66769 7.267489,-0.10964 9.866153,1.82745 9.866153,7.35442 0,3.37465 -0.62422,4.43993 -3.168473,5.40725 -3.84632,1.46237 -8.838811,1.43496 -12.580625,-0.0691 z"
       id="path16322" />
    <path
       style="opacity:0.37;fill:#ffffff;stroke-width:1.23522"
       d="m 84.921592,113.60204 c -2.228412,-0.89571 -2.779252,-2.08984 -2.779252,-6.02492 0,-5.86237 0.893977,-6.5505 8.662197,-6.66769 7.267489,-0.10964 9.866153,1.82745 9.866153,7.35442 0,3.37465 -0.62422,4.43993 -3.168473,5.40725 -3.84632,1.46237 -8.838811,1.43496 -12.580625,-0.0691 z"
       id="path16324" />
    <path
       style="opacity:0.37;fill:#ffffff;stroke-width:1.23522"
       d="m 84.921592,113.60204 c -2.228412,-0.89571 -2.779252,-2.08984 -2.779252,-6.02492 0,-5.86237 0.893977,-6.5505 8.662197,-6.66769 7.267489,-0.10964 9.866153,1.82745 9.866153,7.35442 0,3.37465 -0.62422,4.43993 -3.168473,5.40725 -3.84632,1.46237 -8.838811,1.43496 -12.580625,-0.0691 z"
       id="path16326" />
    <path
       style="opacity:0.37;fill:#ffffff;stroke-width:1.23522"
       d="m 84.921592,113.60204 c -2.242957,-0.90156 -2.779252,-2.0857 -2.779252,-6.13659 0,-5.77388 1.466026,-6.79799 9.524467,-6.65346 6.571215,0.11787 9.003883,2.1312 9.003883,7.45186 0,3.37465 -0.62422,4.43993 -3.168473,5.40725 -3.84632,1.46237 -8.838811,1.43496 -12.580625,-0.0691 z"
       id="path16328" />
    <path
       style="opacity:0.37;fill:#ffffff;stroke-width:1.23522"
       d="M 22.542823,67.838334 C 20.027046,66.373028 19.583878,59.346882 21.86345,57.06731 c 1.923273,-1.923273 13.640538,-1.923273 15.563812,0 2.41376,2.41376 1.831785,9.360765 -0.906974,10.826504 -3.0333,1.623373 -11.150365,1.591155 -13.977465,-0.05548 z"
       id="path16330" />
    <path
       style="opacity:0.37;fill:#ffffff;stroke-width:1.23522"
       d="M 22.542823,67.838334 C 20.027046,66.373028 19.583878,59.346882 21.86345,57.06731 c 1.923273,-1.923273 13.640538,-1.923273 15.563812,0 2.41376,2.41376 1.831785,9.360765 -0.906974,10.826504 -3.0333,1.623373 -11.150365,1.591155 -13.977465,-0.05548 z"
       id="path16332" />
    <path
       style="opacity:0.37;fill:#ffffff;stroke-width:1.23522"
       d="M 22.542823,67.838334 C 20.027046,66.373028 19.583878,59.346882 21.86345,57.06731 c 1.923273,-1.923273 13.640538,-1.923273 15.563812,0 2.41376,2.41376 1.831785,9.360765 -0.906974,10.826504 -3.0333,1.623373 -11.150365,1.591155 -13.977465,-0.05548 z"
       id="path16334" />
    <path
       style="opacity:0.37;fill:#ffffff;stroke-width:1.23522"
       d="m 114.56899,153.53142 c -2.86188,-0.55135 -4.59602,-4.47136 -3.80199,-8.5944 0.70077,-3.63883 6.69332,-5.81314 12.60312,-4.57285 4.91329,1.03115 5.1065,1.25433 5.47309,6.32209 0.33944,4.69257 0.0343,5.38465 -2.85967,6.48492 -3.27009,1.24328 -6.32976,1.33985 -11.41455,0.36024 z"
       id="path16336" />
    <path
       style="opacity:0.37;fill:#ffffff;stroke-width:1.23522"
       d="m 113.95018,153.55159 c -2.30503,-0.60243 -3.89666,-4.90981 -3.18318,-8.61457 0.70077,-3.63883 6.69332,-5.81314 12.60312,-4.57285 4.91329,1.03115 5.1065,1.25433 5.47309,6.32209 0.33944,4.69257 0.0343,5.38465 -2.85967,6.48492 -3.29034,1.25098 -8.11835,1.40361 -12.03336,0.38041 z"
       id="path16338" />
    <path
       style="opacity:0.37;fill:#ffffff;stroke-width:1.23522"
       d="m 113.95018,153.55159 c -2.30503,-0.60243 -3.89666,-4.90981 -3.18318,-8.61457 0.70077,-3.63883 6.69332,-5.81314 12.60312,-4.57285 4.91329,1.03115 5.1065,1.25433 5.47309,6.32209 0.33944,4.69257 0.0343,5.38465 -2.85967,6.48492 -3.29034,1.25098 -8.11835,1.40361 -12.03336,0.38041 z"
       id="path16340" />
    <path
       style="opacity:0.37;fill:#ffffff;stroke-width:1.23522"
       d="m 143.59469,126.40954 c -2.94786,-0.50409 -3.39686,-1.15222 -3.39686,-4.90331 0,-2.37734 0.56239,-5.37328 1.24976,-6.65763 2.18687,-4.08621 16.35441,-6.57905 19.50199,-3.43147 2.04739,2.04739 1.87653,11.47548 -0.23979,13.23187 -1.94039,1.61038 -11.96374,2.64143 -17.1151,1.76054 z"
       id="path16342" />
    <path
       style="opacity:0.37;fill:#ffffff;stroke-width:1.23522"
       d="m 143.59469,126.40954 c -2.94786,-0.50409 -3.39686,-1.15222 -3.39686,-4.90331 0,-2.37734 0.56239,-5.37328 1.24976,-6.65763 2.18687,-4.08621 16.35441,-6.57905 19.50199,-3.43147 2.04739,2.04739 1.87653,11.47548 -0.23979,13.23187 -1.94039,1.61038 -11.96374,2.64143 -17.1151,1.76054 z"
       id="path16344" />
    <path
       style="opacity:0.37;fill:#ffffff;stroke-width:1.23522"
       d="m 142.97708,126.42605 c -2.23684,-0.48702 -2.77925,-1.44793 -2.77925,-4.92368 0,-2.37522 0.56239,-5.36942 1.24976,-6.65377 2.18687,-4.08621 16.35441,-6.57905 19.50199,-3.43147 2.0762,2.0762 1.8741,11.4775 -0.28526,13.26961 -1.92587,1.59833 -13.22936,2.70988 -17.68724,1.73931 z"
       id="path16346" />
    <path
       style="opacity:0.37;fill:#ffffff;stroke-width:1.23522"
       d="m 142.97708,126.42605 c -2.23684,-0.48702 -2.77925,-1.44793 -2.77925,-4.92368 0,-2.37522 0.56239,-5.36942 1.24976,-6.65377 2.18687,-4.08621 16.35441,-6.57905 19.50199,-3.43147 2.0762,2.0762 1.8741,11.4775 -0.28526,13.26961 -1.92587,1.59833 -13.22936,2.70988 -17.68724,1.73931 z"
       id="path16348" />
    <path
       style="opacity:0.37;fill:#ffffff;stroke-width:1.23522"
       d="m 84.84992,186.45369 c -2.451412,-0.98337 -2.797606,-1.88116 -2.470446,-6.40662 0.367186,-5.07914 0.558396,-5.30033 5.473562,-6.33187 7.564761,-1.58762 12.082723,0.90667 12.583544,6.94713 0.3334,4.0213 -0.0401,4.78656 -2.859668,5.85854 -3.937421,1.49701 -8.892908,1.47085 -12.726992,-0.0672 z"
       id="path16350" />
    <path
       style="opacity:0.37;fill:#ffffff;stroke-width:1.23522"
       d="m 84.84992,186.45369 c -2.451412,-0.98337 -2.797606,-1.88116 -2.470446,-6.40662 0.367186,-5.07914 0.558396,-5.30033 5.473562,-6.33187 7.564761,-1.58762 12.082723,0.90667 12.583544,6.94713 0.3334,4.0213 -0.0401,4.78656 -2.859668,5.85854 -3.937421,1.49701 -8.892908,1.47085 -12.726992,-0.0672 z"
       id="path16352" />
    <path
       style="opacity:0.37;fill:#ffffff;stroke-width:1.23522"
       d="m 84.84992,186.45369 c -2.451412,-0.98337 -2.797606,-1.88116 -2.470446,-6.40662 0.367186,-5.07914 0.558396,-5.30033 5.473562,-6.33187 7.564761,-1.58762 12.082723,0.90667 12.583544,6.94713 0.3334,4.0213 -0.0401,4.78656 -2.859668,5.85854 -3.937421,1.49701 -8.892908,1.47085 -12.726992,-0.0672 z"
       id="path16354" />
    <path
       style="opacity:0.37;fill:#ffffff;stroke-width:1.23522"
       d="m 84.84992,186.45369 c -2.451412,-0.98337 -2.797606,-1.88116 -2.470446,-6.40662 0.367186,-5.07914 0.558396,-5.30033 5.473562,-6.33187 7.564761,-1.58762 12.082723,0.90667 12.583544,6.94713 0.3334,4.0213 -0.0401,4.78656 -2.859668,5.85854 -3.937421,1.49701 -8.892908,1.47085 -12.726992,-0.0672 z"
       id="path16356" />
    <path
       style="opacity:0.37;fill:#ffffff;stroke-width:1.23522"
       d="m 84.84992,186.45369 c -2.451412,-0.98337 -2.797606,-1.88116 -2.470446,-6.40662 0.367186,-5.07914 0.558396,-5.30033 5.473562,-6.33187 7.564761,-1.58762 12.082723,0.90667 12.583544,6.94713 0.3334,4.0213 -0.0401,4.78656 -2.859668,5.85854 -3.937421,1.49701 -8.892908,1.47085 -12.726992,-0.0672 z"
       id="path16358" />
    <path
       style="opacity:0.37;fill:#ffffff;stroke-width:1.23522"
       d="m 84.84992,186.45369 c -2.451412,-0.98337 -2.797606,-1.88116 -2.470446,-6.40662 0.367186,-5.07914 0.558396,-5.30033 5.473562,-6.33187 7.564761,-1.58762 12.082723,0.90667 12.583544,6.94713 0.3334,4.0213 -0.0401,4.78656 -2.859668,5.85854 -3.937421,1.49701 -8.892908,1.47085 -12.726992,-0.0672 z"
       id="path16360" />
    <path
       style="opacity:0.37;fill:#ffffff;stroke-width:1.23522"
       d="m 113.95018,153.55159 c -2.30503,-0.60243 -3.89666,-4.90981 -3.18318,-8.61457 0.70077,-3.63883 6.69332,-5.81314 12.60312,-4.57285 4.91329,1.03115 5.1065,1.25433 5.47309,6.32209 0.33944,4.69257 0.0343,5.38465 -2.85967,6.48492 -3.29034,1.25098 -8.11835,1.40361 -12.03336,0.38041 z"
       id="path16362" />
    <path
       style="opacity:0.37;fill:#ffffff;stroke-width:1.23522"
       d="m 113.95018,153.55159 c -2.30503,-0.60243 -3.89666,-4.90981 -3.18318,-8.61457 0.70077,-3.63883 6.69332,-5.81314 12.60312,-4.57285 4.91329,1.03115 5.1065,1.25433 5.47309,6.32209 0.33944,4.69257 0.0343,5.38465 -2.85967,6.48492 -3.29034,1.25098 -8.11835,1.40361 -12.03336,0.38041 z"
       id="path16364" />
    <path
       style="opacity:0.37;fill:#ffffff;stroke-width:1.23522"
       d="m 113.95018,153.55159 c -2.30503,-0.60243 -3.89666,-4.90981 -3.18318,-8.61457 0.70077,-3.63883 6.69332,-5.81314 12.60312,-4.57285 4.91329,1.03115 5.1065,1.25433 5.47309,6.32209 0.33944,4.69257 0.0343,5.38465 -2.85967,6.48492 -3.29034,1.25098 -8.11835,1.40361 -12.03336,0.38041 z"
       id="path16366" />
    <path
       style="opacity:0.37;fill:#ffffff;stroke-width:1.23522"
       d="m 113.95018,153.55159 c -2.30503,-0.60243 -3.89666,-4.90981 -3.18318,-8.61457 0.70077,-3.63883 6.69332,-5.81314 12.60312,-4.57285 4.91329,1.03115 5.1065,1.25433 5.47309,6.32209 0.33944,4.69257 0.0343,5.38465 -2.85967,6.48492 -3.29034,1.25098 -8.11835,1.40361 -12.03336,0.38041 z"
       id="path16368" />
    <path
       style="opacity:0.37;fill:#ffffff;stroke-width:1.23522"
       d="m 113.95018,153.55159 c -2.30503,-0.60243 -3.89666,-4.90981 -3.18318,-8.61457 0.70077,-3.63883 6.69332,-5.81314 12.60312,-4.57285 4.91329,1.03115 5.1065,1.25433 5.47309,6.32209 0.33944,4.69257 0.0343,5.38465 -2.85967,6.48492 -3.29034,1.25098 -8.11835,1.40361 -12.03336,0.38041 z"
       id="path16370" />
    <path
       style="opacity:0.37;fill:#ffffff;stroke-width:1.23522"
       d="m 84.921592,113.60204 c -2.242957,-0.90156 -2.779252,-2.0857 -2.779252,-6.13659 0,-5.77388 1.466026,-6.79799 9.524467,-6.65346 6.571215,0.11787 9.003883,2.1312 9.003883,7.45186 0,3.37465 -0.62422,4.43993 -3.168473,5.40725 -3.84632,1.46237 -8.838811,1.43496 -12.580625,-0.0691 z"
       id="path16372" />
    <path
       style="opacity:0.37;fill:#ffffff;stroke-width:1.23522"
       d=""
       id="path16374" />
    <path
       style="opacity:0.37;fill:#ffffff;stroke-width:1.23522"
       d="m 84.84992,186.45369 c -2.451412,-0.98337 -2.797606,-1.88116 -2.470446,-6.40662 0.367186,-5.07914 0.558396,-5.30033 5.473562,-6.33187 7.564761,-1.58762 12.082723,0.90667 12.583544,6.94713 0.3334,4.0213 -0.0401,4.78656 -2.859668,5.85854 -3.937421,1.49701 -8.892908,1.47085 -12.726992,-0.0672 z"
       id="path16376" />
    <path
       style="opacity:0.37;fill:#ffffff;stroke-width:1.23522"
       d="m 84.84992,186.45369 c -2.451412,-0.98337 -2.797606,-1.88116 -2.470446,-6.40662 0.367186,-5.07914 0.558396,-5.30033 5.473562,-6.33187 7.564761,-1.58762 12.082723,0.90667 12.583544,6.94713 0.3334,4.0213 -0.0401,4.78656 -2.859668,5.85854 -3.937421,1.49701 -8.892908,1.47085 -12.726992,-0.0672 z"
       id="path16378" />
    <path
       style="opacity:0.37;fill:#ffffff;stroke-width:1.23522"
       d="m 84.84992,186.45369 c -2.451412,-0.98337 -2.797606,-1.88116 -2.470446,-6.40662 0.367186,-5.07914 0.558396,-5.30033 5.473562,-6.33187 7.564761,-1.58762 12.082723,0.90667 12.583544,6.94713 0.3334,4.0213 -0.0401,4.78656 -2.859668,5.85854 -3.937421,1.49701 -8.892908,1.47085 -12.726992,-0.0672 z"
       id="path16380" />
    <path
       style="opacity:0.37;fill:#ffffff;stroke-width:1.23522"
       d="m 84.921592,113.60204 c -2.242957,-0.90156 -2.779252,-2.0857 -2.779252,-6.13659 0,-5.77388 1.466026,-6.79799 9.524467,-6.65346 6.571215,0.11787 9.003883,2.1312 9.003883,7.45186 0,3.37465 -0.62422,4.43993 -3.168473,5.40725 -3.84632,1.46237 -8.838811,1.43496 -12.580625,-0.0691 z"
       id="path16382" />
    <path
       style="opacity:0.37;fill:#ffffff;stroke-width:1.23522"
       d="m 114.25814,92.345143 c -2.44209,-1.276396 -3.16844,-2.725208 -3.47234,-6.926117 -0.21136,-2.921654 0.27359,-6.104794 1.07766,-7.073645 2.02592,-2.441085 13.93279,-2.378026 15.9766,0.08461 1.69093,2.037448 1.97265,11.50435 0.38939,13.085289 -1.9487,1.945854 -10.82713,2.473209 -13.97131,0.82986 z"
       id="path16384" />
    <path
       style="opacity:0.37;fill:#ffffff;stroke-width:1.23522"
       d="m 142.97708,126.42605 c -2.23684,-0.48702 -2.77925,-1.44793 -2.77925,-4.92368 0,-2.37522 0.56239,-5.36942 1.24976,-6.65377 2.18687,-4.08621 16.35441,-6.57905 19.50199,-3.43147 2.0762,2.0762 1.8741,11.4775 -0.28526,13.26961 -1.92587,1.59833 -13.22936,2.70988 -17.68724,1.73931 z"
       id="path16386" />
    <path
       style="opacity:0.37;fill:#ffffff;stroke-width:1.23522"
       d="m 113.95018,153.55159 c -2.30503,-0.60243 -3.89666,-4.90981 -3.18318,-8.61457 0.70077,-3.63883 6.69332,-5.81314 12.60312,-4.57285 4.91329,1.03115 5.1065,1.25433 5.47309,6.32209 0.33944,4.69257 0.0343,5.38465 -2.85967,6.48492 -3.29034,1.25098 -8.11835,1.40361 -12.03336,0.38041 z"
       id="path16388" />
    <path
       style="opacity:0.37;fill:#ffffff;stroke-width:1.23522"
       d="M 22.542823,67.838334 C 20.027046,66.373028 19.583878,59.346882 21.86345,57.06731 c 1.923273,-1.923273 13.640538,-1.923273 15.563812,0 2.41376,2.41376 1.831785,9.360765 -0.906974,10.826504 -3.0333,1.623373 -11.150365,1.591155 -13.977465,-0.05548 z"
       id="path16390" />
    <path
       style="opacity:0.37;fill:#ffffff;stroke-width:1.23522"
       d="M 22.542823,67.838334 C 20.027046,66.373028 19.583878,59.346882 21.86345,57.06731 c 1.923273,-1.923273 13.640538,-1.923273 15.563812,0 2.41376,2.41376 1.831785,9.360765 -0.906974,10.826504 -3.0333,1.623373 -11.150365,1.591155 -13.977465,-0.05548 z"
       id="path16392" />
    <path
       style="opacity:0.37;fill:#ffffff;stroke-width:1.23522"
       d="M 22.542823,67.838334 C 20.027046,66.373028 19.583878,59.346882 21.86345,57.06731 c 1.923273,-1.923273 13.640538,-1.923273 15.563812,0 2.41376,2.41376 1.831785,9.360765 -0.906974,10.826504 -3.0333,1.623373 -11.150365,1.591155 -13.977465,-0.05548 z"
       id="path16394" />
  </g>
</svg>
